<svg width="266" height="410" viewBox="0 0 266 410" fill="none" xmlns="http://www.w3.org/2000/svg">
<path d="M264.993 113.699C264.993 175.839 214.611 226.194 152.484 226.194C90.3568 226.194 39.9883 175.839 39.9883 113.699C39.9883 51.5583 90.3568 1.20325 152.484 1.20325C214.611 1.20325 264.993 51.5717 264.993 113.699Z" stroke="#231F20" stroke-miterlimit="10"/>
<path d="M136.084 224.952L91.5205 400.034L59.2555 349.409L1.62402 364.529L87.6055 208.482L96.3805 211.304" stroke="#231F20" stroke-miterlimit="10"/>
<path d="M191.153 219.404L191.558 219.269L192.085 219.134L240.415 394.242L187.225 366.284L144.7 407.999L142.148 229.812L160.63 225.884" stroke="#231F20" stroke-miterlimit="10"/>
<path d="M144.396 75.9122C147.663 69.2567 153.049 69.2567 156.343 75.9122L158.476 80.2322C161.743 86.8877 170.451 93.2057 177.808 94.2722L182.56 94.9606C189.918 96.0271 191.578 101.144 186.246 106.328L182.803 109.676C177.484 114.86 174.163 125.093 175.405 132.41L176.229 137.148C177.498 144.465 173.137 147.611 166.563 144.168L162.324 141.941C155.749 138.471 144.99 138.471 138.415 141.941L134.176 144.168C127.602 147.624 123.255 144.465 124.51 137.148L125.334 132.41C126.589 125.093 123.268 114.86 117.949 109.676L114.507 106.328C109.188 101.144 110.848 96.0271 118.192 94.9606L122.944 94.2722C130.288 93.2057 138.982 86.8877 142.29 80.2322L144.396 75.9122Z" fill="#E68E38"/>
<path d="M151.985 201.03C200.798 201.03 240.37 161.459 240.37 112.646C240.37 63.8324 200.798 24.2614 151.985 24.2614C103.172 24.2614 63.6006 63.8324 63.6006 112.646C63.6006 161.459 103.172 201.03 151.985 201.03Z" stroke="#231F20" stroke-miterlimit="10"/>
<path d="M55.5723 322.112L94.3848 243.636" stroke="#231F20" stroke-miterlimit="10"/>
</svg>
