<svg width="486" height="526" viewBox="0 0 486 526" fill="none" xmlns="http://www.w3.org/2000/svg">
<path d="M480.915 86.2094C494.718 124.689 472.342 184.657 453.483 234.79C435.164 285.235 421.269 325.522 401.411 364.908C381.186 404.93 356.272 443.092 322.734 473.732C289.022 503.424 247.226 525.907 208.509 525.589C169.618 524.324 134.52 501.517 99.0543 479.346C64.1292 457.487 28.8372 436.263 12.6386 403.181C-4.10019 369.786 -1.3785 323.896 6.03251 279.867C13.9838 236.149 26.7977 195.238 42.9145 148.607C58.6643 102.611 78.0839 50.2594 111.582 24.6808C145.987 -1.2214 193.93 -0.662135 239.151 0.86823C284.005 3.03424 326.31 7.11892 372.357 18.4487C418.231 28.831 467.479 47.094 480.915 86.2094Z" fill="#E68E38" fill-opacity="0.07"/>
</svg>
