<svg width="530" height="402" viewBox="0 0 530 402" fill="none" xmlns="http://www.w3.org/2000/svg">
<rect x="234.216" y="164.443" width="10.3697" height="32.0087" stroke="white"/>
<rect x="325.173" y="164.443" width="10.3697" height="32.0087" stroke="white"/>
<rect x="279.695" y="164.443" width="10.3697" height="32.0087" stroke="white"/>
<rect x="370.652" y="164.443" width="10.3697" height="32.0087" stroke="white"/>
<rect x="256.956" y="164.443" width="10.3697" height="32.0087" stroke="white"/>
<rect x="347.913" y="164.443" width="10.3697" height="32.0087" stroke="white"/>
<rect x="302.434" y="164.443" width="10.3697" height="32.0087" stroke="white"/>
<rect x="393.392" y="164.443" width="10.3697" height="32.0087" stroke="white"/>
<rect x="416.132" y="164.443" width="10.3697" height="32.0087" stroke="white"/>
<rect x="245.585" y="131.435" width="10.3697" height="32.0087" stroke="white"/>
<rect x="336.543" y="131.435" width="10.3697" height="32.0087" stroke="white"/>
<rect x="291.063" y="131.435" width="10.3697" height="32.0087" stroke="white"/>
<rect x="382.023" y="131.435" width="10.3697" height="32.0087" stroke="white"/>
<rect x="268.325" y="131.435" width="10.3697" height="32.0087" stroke="white"/>
<rect x="359.282" y="131.435" width="10.3697" height="32.0087" stroke="white"/>
<rect x="313.803" y="131.435" width="10.3697" height="32.0087" stroke="white"/>
<rect x="404.761" y="131.435" width="10.3697" height="32.0087" stroke="white"/>
<rect x="427.501" y="131.435" width="10.3697" height="32.0087" stroke="white"/>
<rect x="234.216" y="33.5083" width="10.3697" height="32.0087" stroke="white"/>
<rect x="325.173" y="33.5083" width="10.3697" height="32.0087" stroke="white"/>
<rect x="279.695" y="33.5083" width="10.3697" height="32.0087" stroke="white"/>
<rect x="370.652" y="33.5083" width="10.3697" height="32.0087" stroke="white"/>
<rect x="256.956" y="33.5083" width="10.3697" height="32.0087" stroke="white"/>
<rect x="347.913" y="33.5083" width="10.3697" height="32.0087" stroke="white"/>
<rect x="302.434" y="33.5083" width="10.3697" height="32.0087" stroke="white"/>
<rect x="393.392" y="33.5083" width="10.3697" height="32.0087" stroke="white"/>
<rect x="416.132" y="33.5083" width="10.3697" height="32.0087" stroke="white"/>
<rect x="234.216" y="197.084" width="10.3697" height="32.0087" fill="white" stroke="white"/>
<rect x="325.173" y="197.084" width="10.3697" height="32.0087" fill="white" stroke="white"/>
<rect x="279.695" y="197.084" width="10.3697" height="32.0087" fill="white" stroke="white"/>
<rect x="370.652" y="197.084" width="10.3697" height="32.0087" fill="white" stroke="white"/>
<rect x="256.956" y="197.084" width="10.3697" height="32.0087" fill="white" stroke="white"/>
<rect x="347.913" y="197.084" width="10.3697" height="32.0087" fill="white" stroke="white"/>
<rect x="302.434" y="197.084" width="10.3697" height="32.0087" fill="white" stroke="white"/>
<rect x="393.392" y="197.084" width="10.3697" height="32.0087" fill="white" stroke="white"/>
<rect x="416.132" y="197.084" width="10.3697" height="32.0087" fill="white" stroke="white"/>
<rect x="234.216" y="229.728" width="67.218" height="32.0087" fill="white" stroke="white"/>
<rect x="370.652" y="229.728" width="67.218" height="32.0087" fill="white" stroke="white"/>
<rect x="245.585" y="164.076" width="10.3697" height="32.0087" fill="white" stroke="white"/>
<rect x="336.543" y="164.076" width="10.3697" height="32.0087" fill="white" stroke="white"/>
<rect x="291.063" y="164.076" width="10.3697" height="32.0087" fill="white" stroke="white"/>
<rect x="382.023" y="164.076" width="10.3697" height="32.0087" fill="white" stroke="white"/>
<rect x="268.325" y="164.076" width="10.3697" height="32.0087" fill="white" stroke="white"/>
<rect x="359.282" y="164.076" width="10.3697" height="32.0087" fill="white" stroke="white"/>
<rect x="313.803" y="164.076" width="10.3697" height="32.0087" fill="white" stroke="white"/>
<rect x="404.761" y="164.076" width="10.3697" height="32.0087" fill="white" stroke="white"/>
<rect x="427.501" y="164.076" width="10.3697" height="32.0087" fill="white" stroke="white"/>
<rect x="234.216" y="66.1504" width="10.3697" height="32.0087" fill="white" stroke="white"/>
<rect x="325.173" y="66.1504" width="10.3697" height="32.0087" fill="white" stroke="white"/>
<rect x="279.695" y="66.1504" width="10.3697" height="32.0087" fill="white" stroke="white"/>
<rect x="370.652" y="66.1504" width="10.3697" height="32.0087" fill="white" stroke="white"/>
<rect x="256.956" y="66.1504" width="10.3697" height="32.0087" fill="white" stroke="white"/>
<rect x="347.913" y="66.1504" width="10.3697" height="32.0087" fill="white" stroke="white"/>
<rect x="302.434" y="66.1504" width="10.3697" height="32.0087" fill="white" stroke="white"/>
<rect x="393.392" y="66.1504" width="10.3697" height="32.0087" fill="white" stroke="white"/>
<rect x="416.132" y="66.1504" width="10.3697" height="32.0087" fill="white" stroke="white"/>
<rect x="245.585" y="33.1416" width="10.3697" height="32.0087" fill="white" stroke="white"/>
<rect x="336.543" y="33.1416" width="10.3697" height="32.0087" fill="white" stroke="white"/>
<rect x="291.063" y="33.1416" width="10.3697" height="32.0087" fill="white" stroke="white"/>
<rect x="382.023" y="33.1416" width="10.3697" height="32.0087" fill="white" stroke="white"/>
<rect x="268.325" y="33.1416" width="10.3697" height="32.0087" fill="white" stroke="white"/>
<rect x="359.282" y="33.1416" width="10.3697" height="32.0087" fill="white" stroke="white"/>
<rect x="313.803" y="33.1416" width="10.3697" height="32.0087" fill="white" stroke="white"/>
<rect x="404.761" y="33.1416" width="10.3697" height="32.0087" fill="white" stroke="white"/>
<rect x="427.501" y="33.1416" width="10.3697" height="32.0087" fill="white" stroke="white"/>
<rect x="234.216" y="131.435" width="10.3697" height="32.0087" fill="white" stroke="white"/>
<rect x="325.173" y="131.435" width="10.3697" height="32.0087" fill="white" stroke="white"/>
<rect x="279.695" y="131.435" width="10.3697" height="32.0087" fill="white" stroke="white"/>
<rect x="370.652" y="131.435" width="10.3697" height="32.0087" fill="white" stroke="white"/>
<rect x="256.956" y="131.435" width="10.3697" height="32.0087" fill="white" stroke="white"/>
<rect x="347.913" y="131.435" width="10.3697" height="32.0087" fill="white" stroke="white"/>
<rect x="302.434" y="131.435" width="10.3697" height="32.0087" fill="white" stroke="white"/>
<rect x="393.392" y="131.435" width="10.3697" height="32.0087" fill="white" stroke="white"/>
<rect x="416.132" y="131.435" width="10.3697" height="32.0087" fill="white" stroke="white"/>
<rect x="245.585" y="98.4268" width="10.3697" height="32.0087" fill="white" stroke="white"/>
<rect x="336.543" y="98.4268" width="10.3697" height="32.0087" fill="white" stroke="white"/>
<rect x="291.063" y="98.4268" width="10.3697" height="32.0087" fill="white" stroke="white"/>
<rect x="382.023" y="98.4268" width="10.3697" height="32.0087" fill="white" stroke="white"/>
<rect x="268.325" y="98.4268" width="10.3697" height="32.0087" fill="white" stroke="white"/>
<rect x="359.282" y="98.4268" width="10.3697" height="32.0087" fill="white" stroke="white"/>
<rect x="313.803" y="98.4268" width="10.3697" height="32.0087" fill="white" stroke="white"/>
<rect x="404.761" y="98.4268" width="10.3697" height="32.0087" fill="white" stroke="white"/>
<rect x="427.501" y="98.4268" width="10.3697" height="32.0087" fill="white" stroke="white"/>
<rect x="245.585" y="196.718" width="10.3697" height="32.0087" stroke="white"/>
<rect x="336.543" y="196.718" width="10.3697" height="32.0087" stroke="white"/>
<rect x="302.434" y="229.728" width="67.218" height="32.0087" stroke="white"/>
<rect x="291.063" y="196.718" width="10.3697" height="32.0087" stroke="white"/>
<rect x="382.023" y="196.718" width="10.3697" height="32.0087" stroke="white"/>
<rect x="268.325" y="196.718" width="10.3697" height="32.0087" stroke="white"/>
<rect x="359.282" y="196.718" width="10.3697" height="32.0087" stroke="white"/>
<rect x="313.803" y="196.718" width="10.3697" height="32.0087" stroke="white"/>
<rect x="404.761" y="196.718" width="10.3697" height="32.0087" stroke="white"/>
<rect x="427.501" y="196.718" width="10.3697" height="32.0087" stroke="white"/>
<rect x="234.216" y="98.793" width="10.3697" height="32.0087" stroke="white"/>
<rect x="325.173" y="98.793" width="10.3697" height="32.0087" stroke="white"/>
<rect x="279.695" y="98.793" width="10.3697" height="32.0087" stroke="white"/>
<rect x="370.652" y="98.793" width="10.3697" height="32.0087" stroke="white"/>
<rect x="256.956" y="98.793" width="10.3697" height="32.0087" stroke="white"/>
<rect x="347.913" y="98.793" width="10.3697" height="32.0087" stroke="white"/>
<rect x="302.434" y="98.793" width="10.3697" height="32.0087" stroke="white"/>
<rect x="393.392" y="98.793" width="10.3697" height="32.0087" stroke="white"/>
<rect x="416.132" y="98.793" width="10.3697" height="32.0087" stroke="white"/>
<rect x="245.585" y="65.7832" width="10.3697" height="32.0087" stroke="white"/>
<rect x="336.543" y="65.7832" width="10.3697" height="32.0087" stroke="white"/>
<rect x="291.063" y="65.7832" width="10.3697" height="32.0087" stroke="white"/>
<rect x="382.023" y="65.7832" width="10.3697" height="32.0087" stroke="white"/>
<rect x="268.325" y="65.7832" width="10.3697" height="32.0087" stroke="white"/>
<rect x="359.282" y="65.7832" width="10.3697" height="32.0087" stroke="white"/>
<rect x="313.803" y="65.7832" width="10.3697" height="32.0087" stroke="white"/>
<rect x="404.761" y="65.7832" width="10.3697" height="32.0087" stroke="white"/>
<rect x="427.501" y="65.7832" width="10.3697" height="32.0087" stroke="white"/>
<rect x="237.15" y="169.211" width="4.50145" height="23.5732" stroke="white"/>
<rect x="328.107" y="169.211" width="4.50145" height="23.5732" stroke="white"/>
<rect x="282.63" y="169.211" width="4.50145" height="23.5732" stroke="white"/>
<rect x="373.587" y="169.211" width="4.50145" height="23.5732" stroke="white"/>
<rect x="259.89" y="169.211" width="4.50145" height="23.5732" stroke="white"/>
<rect x="350.847" y="169.211" width="4.50145" height="23.5732" stroke="white"/>
<rect x="305.367" y="169.211" width="4.50145" height="23.5732" stroke="white"/>
<rect x="396.326" y="169.211" width="4.50145" height="23.5732" stroke="white"/>
<rect x="419.064" y="169.211" width="4.50145" height="23.5732" stroke="white"/>
<rect x="248.52" y="136.202" width="4.50145" height="23.5732" stroke="white"/>
<rect x="339.477" y="136.202" width="4.50145" height="23.5732" stroke="white"/>
<rect x="293.999" y="136.202" width="4.50145" height="23.5732" stroke="white"/>
<rect x="384.956" y="136.202" width="4.50145" height="23.5732" stroke="white"/>
<rect x="271.259" y="136.202" width="4.50145" height="23.5732" stroke="white"/>
<rect x="362.217" y="136.202" width="4.50145" height="23.5732" stroke="white"/>
<rect x="316.737" y="136.202" width="4.50145" height="23.5732" stroke="white"/>
<rect x="407.694" y="136.202" width="4.50145" height="23.5732" stroke="white"/>
<rect x="430.435" y="136.202" width="4.50145" height="23.5732" stroke="white"/>
<rect x="237.15" y="38.2773" width="4.50145" height="23.5732" stroke="white"/>
<rect x="328.107" y="38.2773" width="4.50145" height="23.5732" stroke="white"/>
<rect x="282.63" y="38.2773" width="4.50145" height="23.5732" stroke="white"/>
<rect x="373.587" y="38.2773" width="4.50145" height="23.5732" stroke="white"/>
<rect x="259.89" y="38.2773" width="4.50145" height="23.5732" stroke="white"/>
<rect x="350.847" y="38.2773" width="4.50145" height="23.5732" stroke="white"/>
<rect x="305.367" y="38.2773" width="4.50145" height="23.5732" stroke="white"/>
<rect x="396.326" y="38.2773" width="4.50145" height="23.5732" stroke="white"/>
<rect x="419.064" y="38.2773" width="4.50145" height="23.5732" stroke="white"/>
<rect x="248.52" y="201.487" width="4.50145" height="23.5732" stroke="white"/>
<rect x="339.477" y="201.487" width="4.50145" height="23.5732" stroke="white"/>
<rect x="306.101" y="234.495" width="11.47" height="27.2408" stroke="white"/>
<rect x="339.111" y="234.495" width="11.47" height="27.2408" stroke="white"/>
<rect x="322.239" y="234.495" width="11.47" height="27.2408" stroke="white"/>
<rect x="354.882" y="234.495" width="11.47" height="27.2408" stroke="white"/>
<rect x="293.999" y="201.487" width="4.50145" height="23.5732" stroke="white"/>
<rect x="384.956" y="201.487" width="4.50145" height="23.5732" stroke="white"/>
<rect x="271.259" y="201.487" width="4.50145" height="23.5732" stroke="white"/>
<rect x="362.217" y="201.487" width="4.50145" height="23.5732" stroke="white"/>
<rect x="316.737" y="201.487" width="4.50145" height="23.5732" stroke="white"/>
<rect x="407.694" y="201.487" width="4.50145" height="23.5732" stroke="white"/>
<rect x="430.435" y="201.487" width="4.50145" height="23.5732" stroke="white"/>
<rect x="237.15" y="103.56" width="4.50145" height="23.5732" stroke="white"/>
<rect x="328.107" y="103.56" width="4.50145" height="23.5732" stroke="white"/>
<rect x="282.63" y="103.56" width="4.50145" height="23.5732" stroke="white"/>
<rect x="373.587" y="103.56" width="4.50145" height="23.5732" stroke="white"/>
<rect x="259.89" y="103.56" width="4.50145" height="23.5732" stroke="white"/>
<rect x="350.847" y="103.56" width="4.50145" height="23.5732" stroke="white"/>
<rect x="305.367" y="103.56" width="4.50145" height="23.5732" stroke="white"/>
<rect x="396.326" y="103.56" width="4.50145" height="23.5732" stroke="white"/>
<rect x="419.064" y="103.56" width="4.50145" height="23.5732" stroke="white"/>
<rect x="248.52" y="70.5522" width="4.50145" height="23.5732" stroke="white"/>
<rect x="339.477" y="70.5522" width="4.50145" height="23.5732" stroke="white"/>
<rect x="293.999" y="70.5522" width="4.50145" height="23.5732" stroke="white"/>
<rect x="384.956" y="70.5522" width="4.50145" height="23.5732" stroke="white"/>
<rect x="271.259" y="70.5522" width="4.50145" height="23.5732" stroke="white"/>
<rect x="362.217" y="70.5522" width="4.50145" height="23.5732" stroke="white"/>
<rect x="316.737" y="70.5522" width="4.50145" height="23.5732" stroke="white"/>
<rect x="407.694" y="70.5522" width="4.50145" height="23.5732" stroke="white"/>
<rect x="430.435" y="70.5522" width="4.50145" height="23.5732" stroke="white"/>
<rect x="245.585" y="0.5" width="10.3697" height="32.0087" stroke="white"/>
<rect x="336.543" y="0.5" width="10.3697" height="32.0087" stroke="white"/>
<rect x="291.063" y="0.5" width="10.3697" height="32.0087" stroke="white"/>
<rect x="382.023" y="0.5" width="10.3697" height="32.0087" stroke="white"/>
<rect x="268.325" y="0.5" width="10.3697" height="32.0087" stroke="white"/>
<rect x="359.282" y="0.5" width="10.3697" height="32.0087" stroke="white"/>
<rect x="313.803" y="0.5" width="10.3697" height="32.0087" stroke="white"/>
<rect x="404.761" y="0.5" width="10.3697" height="32.0087" stroke="white"/>
<rect x="427.501" y="0.5" width="10.3697" height="32.0087" stroke="white"/>
<rect x="234.216" y="0.5" width="10.3697" height="32.0087" fill="white" stroke="white"/>
<rect x="325.173" y="0.5" width="10.3697" height="32.0087" fill="white" stroke="white"/>
<rect x="279.695" y="0.5" width="10.3697" height="32.0087" fill="white" stroke="white"/>
<rect x="370.652" y="0.5" width="10.3697" height="32.0087" fill="white" stroke="white"/>
<rect x="256.956" y="0.5" width="10.3697" height="32.0087" fill="white" stroke="white"/>
<rect x="347.913" y="0.5" width="10.3697" height="32.0087" fill="white" stroke="white"/>
<rect x="302.434" y="0.5" width="10.3697" height="32.0087" fill="white" stroke="white"/>
<rect x="393.392" y="0.5" width="10.3697" height="32.0087" fill="white" stroke="white"/>
<rect x="416.132" y="0.5" width="10.3697" height="32.0087" fill="white" stroke="white"/>
<rect x="248.52" y="5.26709" width="4.50145" height="23.5732" stroke="white"/>
<rect x="339.477" y="5.26709" width="4.50145" height="23.5732" stroke="white"/>
<rect x="293.999" y="5.26709" width="4.50145" height="23.5732" stroke="white"/>
<rect x="384.956" y="5.26709" width="4.50145" height="23.5732" stroke="white"/>
<rect x="271.259" y="5.26709" width="4.50145" height="23.5732" stroke="white"/>
<rect x="362.217" y="5.26709" width="4.50145" height="23.5732" stroke="white"/>
<rect x="316.737" y="5.26709" width="4.50145" height="23.5732" stroke="white"/>
<rect x="407.694" y="5.26709" width="4.50145" height="23.5732" stroke="white"/>
<rect x="430.435" y="5.26709" width="4.50145" height="23.5732" stroke="white"/>
<rect x="237.15" y="201.854" width="4.50145" height="23.5732" fill="#E68E38" stroke="white"/>
<rect x="328.107" y="201.854" width="4.50145" height="23.5732" fill="#E68E38" stroke="white"/>
<rect x="282.63" y="201.854" width="4.50145" height="23.5732" fill="#E68E38" stroke="white"/>
<rect x="373.587" y="201.854" width="4.50145" height="23.5732" fill="#E68E38" stroke="white"/>
<rect x="259.89" y="201.854" width="4.50145" height="23.5732" fill="#E68E38" stroke="white"/>
<rect x="350.847" y="201.854" width="4.50145" height="23.5732" fill="#E68E38" stroke="white"/>
<rect x="305.367" y="201.854" width="4.50145" height="23.5732" fill="#E68E38" stroke="white"/>
<rect x="396.326" y="201.854" width="4.50145" height="23.5732" fill="#E68E38" stroke="white"/>
<rect x="419.064" y="201.854" width="4.50145" height="23.5732" fill="#E68E38" stroke="white"/>
<rect x="237.15" y="234.495" width="15.8711" height="23.5732" fill="#E68E38" stroke="white"/>
<rect x="373.587" y="234.495" width="15.8711" height="23.5732" fill="#E68E38" stroke="white"/>
<rect x="259.89" y="234.495" width="15.8711" height="23.5732" fill="#E68E38" stroke="white"/>
<rect x="396.326" y="234.495" width="15.8711" height="23.5732" fill="#E68E38" stroke="white"/>
<rect x="282.63" y="234.495" width="15.8711" height="23.5732" fill="#E68E38" stroke="white"/>
<rect x="419.064" y="234.495" width="15.8711" height="23.5732" fill="#E68E38" stroke="white"/>
<rect x="248.52" y="168.845" width="4.50145" height="23.5732" fill="#E68E38" stroke="white"/>
<rect x="339.477" y="168.845" width="4.50145" height="23.5732" fill="#E68E38" stroke="white"/>
<rect x="293.999" y="168.845" width="4.50145" height="23.5732" fill="#E68E38" stroke="white"/>
<rect x="384.956" y="168.845" width="4.50145" height="23.5732" fill="#E68E38" stroke="white"/>
<rect x="271.259" y="168.845" width="4.50145" height="23.5732" fill="#E68E38" stroke="white"/>
<rect x="362.217" y="168.845" width="4.50145" height="23.5732" fill="#E68E38" stroke="white"/>
<rect x="316.737" y="168.845" width="4.50145" height="23.5732" fill="#E68E38" stroke="white"/>
<rect x="407.694" y="168.845" width="4.50145" height="23.5732" fill="#E68E38" stroke="white"/>
<rect x="430.435" y="168.845" width="4.50145" height="23.5732" fill="#E68E38" stroke="white"/>
<rect x="237.15" y="70.9185" width="4.50145" height="23.5732" fill="#E68E38" stroke="white"/>
<rect x="328.107" y="70.9185" width="4.50145" height="23.5732" fill="#E68E38" stroke="white"/>
<rect x="282.63" y="70.9185" width="4.50145" height="23.5732" fill="#E68E38" stroke="white"/>
<rect x="373.587" y="70.9185" width="4.50145" height="23.5732" fill="#E68E38" stroke="white"/>
<rect x="259.89" y="70.9185" width="4.50145" height="23.5732" fill="#E68E38" stroke="white"/>
<rect x="350.847" y="70.9185" width="4.50145" height="23.5732" fill="#E68E38" stroke="white"/>
<rect x="305.367" y="70.9185" width="4.50145" height="23.5732" fill="#E68E38" stroke="white"/>
<rect x="396.326" y="70.9185" width="4.50145" height="23.5732" fill="#E68E38" stroke="white"/>
<rect x="419.064" y="70.9185" width="4.50145" height="23.5732" fill="#E68E38" stroke="white"/>
<rect x="248.52" y="37.9102" width="4.50145" height="23.5732" fill="#E68E38" stroke="white"/>
<rect x="339.477" y="37.9102" width="4.50145" height="23.5732" fill="#E68E38" stroke="white"/>
<rect x="293.999" y="37.9102" width="4.50145" height="23.5732" fill="#E68E38" stroke="white"/>
<rect x="384.956" y="37.9102" width="4.50145" height="23.5732" fill="#E68E38" stroke="white"/>
<rect x="271.259" y="37.9102" width="4.50145" height="23.5732" fill="#E68E38" stroke="white"/>
<rect x="362.217" y="37.9102" width="4.50145" height="23.5732" fill="#E68E38" stroke="white"/>
<rect x="316.737" y="37.9102" width="4.50145" height="23.5732" fill="#E68E38" stroke="white"/>
<rect x="407.694" y="37.9102" width="4.50145" height="23.5732" fill="#E68E38" stroke="white"/>
<rect x="430.435" y="37.9102" width="4.50145" height="23.5732" fill="#E68E38" stroke="white"/>
<rect x="237.15" y="136.202" width="4.50145" height="23.5732" fill="#E68E38" stroke="white"/>
<rect x="328.107" y="136.202" width="4.50145" height="23.5732" fill="#E68E38" stroke="white"/>
<rect x="282.63" y="136.202" width="4.50145" height="23.5732" fill="#E68E38" stroke="white"/>
<rect x="373.587" y="136.202" width="4.50145" height="23.5732" fill="#E68E38" stroke="white"/>
<rect x="259.89" y="136.202" width="4.50145" height="23.5732" fill="#E68E38" stroke="white"/>
<rect x="350.847" y="136.202" width="4.50145" height="23.5732" fill="#E68E38" stroke="white"/>
<rect x="305.367" y="136.202" width="4.50145" height="23.5732" fill="#E68E38" stroke="white"/>
<rect x="396.326" y="136.202" width="4.50145" height="23.5732" fill="#E68E38" stroke="white"/>
<rect x="419.064" y="136.202" width="4.50145" height="23.5732" fill="#E68E38" stroke="white"/>
<rect x="248.52" y="103.194" width="4.50145" height="23.5732" fill="#E68E38" stroke="white"/>
<rect x="339.477" y="103.194" width="4.50145" height="23.5732" fill="#E68E38" stroke="white"/>
<rect x="293.999" y="103.194" width="4.50145" height="23.5732" fill="#E68E38" stroke="white"/>
<rect x="384.956" y="103.194" width="4.50145" height="23.5732" fill="#E68E38" stroke="white"/>
<rect x="271.259" y="103.194" width="4.50145" height="23.5732" fill="#E68E38" stroke="white"/>
<rect x="362.217" y="103.194" width="4.50145" height="23.5732" fill="#E68E38" stroke="white"/>
<rect x="316.737" y="103.194" width="4.50145" height="23.5732" fill="#E68E38" stroke="white"/>
<rect x="407.694" y="103.194" width="4.50145" height="23.5732" fill="#E68E38" stroke="white"/>
<rect x="430.435" y="103.194" width="4.50145" height="23.5732" fill="#E68E38" stroke="white"/>
<rect x="237.15" y="5.26709" width="4.50145" height="23.5732" fill="#E68E38" stroke="white"/>
<rect x="328.107" y="5.26709" width="4.50145" height="23.5732" fill="#E68E38" stroke="white"/>
<rect x="282.63" y="5.26709" width="4.50145" height="23.5732" fill="#E68E38" stroke="white"/>
<rect x="373.587" y="5.26709" width="4.50145" height="23.5732" fill="#E68E38" stroke="white"/>
<rect x="259.89" y="5.26709" width="4.50145" height="23.5732" fill="#E68E38" stroke="white"/>
<rect x="350.847" y="5.26709" width="4.50145" height="23.5732" fill="#E68E38" stroke="white"/>
<rect x="305.367" y="5.26709" width="4.50145" height="23.5732" fill="#E68E38" stroke="white"/>
<rect x="396.326" y="5.26709" width="4.50145" height="23.5732" fill="#E68E38" stroke="white"/>
<rect x="419.064" y="5.26709" width="4.50145" height="23.5732" fill="#E68E38" stroke="white"/>
<path opacity="0.25" d="M444.5 355.5H529.5V386C529.5 394.008 523.008 400.5 515 400.5H444.5V355.5Z" stroke="white"/>
<rect x="222.5" y="262.5" width="222.073" height="138.165" stroke="white"/>
<rect opacity="0.25" x="0.5" y="317.713" width="222.073" height="82.9081" stroke="white"/>
<g opacity="0.25">
<rect x="467.523" y="287.988" width="29.3569" height="21.4469" stroke="white"/>
<rect x="497.877" y="265.542" width="29.3569" height="21.4469" stroke="white"/>
<rect x="467.523" y="198.95" width="29.3569" height="21.4469" stroke="white"/>
<rect x="467.523" y="310.187" width="29.3569" height="21.4469" fill="white" stroke="white"/>
<rect x="497.877" y="287.739" width="29.3569" height="21.4469" fill="white" stroke="white"/>
<rect x="467.523" y="221.146" width="29.3569" height="21.4469" fill="white" stroke="white"/>
<rect x="497.877" y="198.7" width="29.3569" height="21.4469" fill="white" stroke="white"/>
<rect x="467.523" y="265.542" width="29.3569" height="21.4469" fill="white" stroke="white"/>
<rect x="497.877" y="243.095" width="29.3569" height="21.4469" fill="white" stroke="white"/>
<rect x="497.877" y="309.936" width="29.3569" height="21.4469" stroke="white"/>
<rect x="467.523" y="243.345" width="29.3569" height="21.4469" stroke="white"/>
<rect x="497.877" y="220.896" width="29.3569" height="21.4469" stroke="white"/>
<rect x="469.216" y="289.185" width="25.605" height="23.5585" stroke="white"/>
<rect x="499.574" y="266.737" width="25.605" height="23.5585" stroke="white"/>
<rect x="469.216" y="200.146" width="25.605" height="23.5585" stroke="white"/>
<rect x="499.574" y="311.132" width="25.605" height="23.5585" stroke="white"/>
<rect x="469.216" y="244.54" width="25.605" height="23.5585" stroke="white"/>
<rect x="499.574" y="222.093" width="25.605" height="23.5585" stroke="white"/>
<rect x="497.877" y="176.502" width="29.3569" height="21.4469" stroke="white"/>
<rect x="467.524" y="176.502" width="29.3569" height="21.4469" fill="white" stroke="white"/>
<rect x="499.574" y="177.697" width="25.605" height="23.5585" stroke="white"/>
<rect x="475.355" y="313.429" width="13.6888" height="15.7104" fill="#E68E38" stroke="white"/>
<rect x="475.355" y="335.626" width="44.0457" height="15.7104" fill="#E68E38" stroke="white"/>
<rect x="505.715" y="290.981" width="13.6888" height="15.7104" fill="#E68E38" stroke="white"/>
<rect x="475.355" y="224.389" width="13.6888" height="15.7104" fill="#E68E38" stroke="white"/>
<rect x="505.715" y="201.942" width="13.6888" height="15.7104" fill="#E68E38" stroke="white"/>
<rect x="475.355" y="268.784" width="13.6888" height="15.7104" fill="#E68E38" stroke="white"/>
<rect x="505.715" y="246.337" width="13.6888" height="15.7104" fill="#E68E38" stroke="white"/>
<rect x="475.355" y="179.744" width="13.6888" height="15.7104" fill="#E68E38" stroke="white"/>
</g>
<g opacity="0.25">
<rect x="21.377" y="251.15" width="29.3569" height="21.4469" stroke="white"/>
<rect x="82.0889" y="251.15" width="29.3569" height="21.4469" stroke="white"/>
<rect x="142.802" y="251.15" width="29.3569" height="21.4469" stroke="white"/>
<rect x="51.7314" y="228.705" width="29.3569" height="21.4469" stroke="white"/>
<rect x="112.443" y="228.705" width="29.3569" height="21.4469" stroke="white"/>
<rect x="173.156" y="228.705" width="29.3569" height="21.4469" stroke="white"/>
<rect x="21.377" y="162.112" width="29.3569" height="21.4469" stroke="white"/>
<rect x="82.0889" y="162.112" width="29.3569" height="21.4469" stroke="white"/>
<rect x="142.802" y="162.112" width="29.3569" height="21.4469" stroke="white"/>
<rect x="21.377" y="273.348" width="29.3569" height="21.4469" fill="white" stroke="white"/>
<rect x="82.0889" y="273.348" width="29.3569" height="21.4469" fill="white" stroke="white"/>
<rect x="142.802" y="273.348" width="29.3569" height="21.4469" fill="white" stroke="white"/>
<rect x="21.377" y="295.545" width="181.141" height="21.4469" fill="white" stroke="white"/>
<rect x="51.7314" y="250.902" width="29.3569" height="21.4469" fill="white" stroke="white"/>
<rect x="112.443" y="250.902" width="29.3569" height="21.4469" fill="white" stroke="white"/>
<rect x="173.156" y="250.902" width="29.3569" height="21.4469" fill="white" stroke="white"/>
<rect x="21.377" y="184.31" width="29.3569" height="21.4469" fill="white" stroke="white"/>
<rect x="82.0889" y="184.31" width="29.3569" height="21.4469" fill="white" stroke="white"/>
<rect x="142.802" y="184.31" width="29.3569" height="21.4469" fill="white" stroke="white"/>
<rect x="51.7314" y="161.862" width="29.3569" height="21.4469" fill="white" stroke="white"/>
<rect x="112.443" y="161.862" width="29.3569" height="21.4469" fill="white" stroke="white"/>
<rect x="173.156" y="161.862" width="29.3569" height="21.4469" fill="white" stroke="white"/>
<rect x="21.377" y="228.705" width="29.3569" height="21.4469" fill="white" stroke="white"/>
<rect x="82.0889" y="228.705" width="29.3569" height="21.4469" fill="white" stroke="white"/>
<rect x="142.802" y="228.705" width="29.3569" height="21.4469" fill="white" stroke="white"/>
<rect x="51.7314" y="206.257" width="29.3569" height="21.4469" fill="white" stroke="white"/>
<rect x="112.443" y="206.257" width="29.3569" height="21.4469" fill="white" stroke="white"/>
<rect x="173.156" y="206.257" width="29.3569" height="21.4469" fill="white" stroke="white"/>
<rect x="51.7314" y="273.098" width="29.3569" height="21.4469" stroke="white"/>
<rect x="112.443" y="273.098" width="29.3569" height="21.4469" stroke="white"/>
<rect x="173.156" y="273.098" width="29.3569" height="21.4469" stroke="white"/>
<rect x="21.377" y="206.507" width="29.3569" height="21.4469" stroke="white"/>
<rect x="82.0889" y="206.507" width="29.3569" height="21.4469" stroke="white"/>
<rect x="142.802" y="206.507" width="29.3569" height="21.4469" stroke="white"/>
<rect x="51.7314" y="184.059" width="29.3569" height="21.4469" stroke="white"/>
<rect x="112.443" y="184.059" width="29.3569" height="21.4469" stroke="white"/>
<rect x="173.156" y="184.059" width="29.3569" height="21.4469" stroke="white"/>
<rect x="23.0693" y="252.347" width="25.605" height="23.5585" stroke="white"/>
<rect x="83.7822" y="252.347" width="25.605" height="23.5585" stroke="white"/>
<rect x="144.494" y="252.347" width="25.605" height="23.5585" stroke="white"/>
<rect x="53.4277" y="229.899" width="25.605" height="23.5585" stroke="white"/>
<rect x="114.137" y="229.899" width="25.605" height="23.5585" stroke="white"/>
<rect x="174.851" y="229.899" width="25.605" height="23.5585" stroke="white"/>
<rect x="23.0693" y="163.308" width="25.605" height="23.5585" stroke="white"/>
<rect x="83.7822" y="163.308" width="25.605" height="23.5585" stroke="white"/>
<rect x="144.494" y="163.308" width="25.605" height="23.5585" stroke="white"/>
<rect x="53.4277" y="274.295" width="25.605" height="23.5585" stroke="white"/>
<rect x="114.137" y="274.295" width="25.605" height="23.5585" stroke="white"/>
<rect x="174.851" y="274.295" width="25.605" height="23.5585" stroke="white"/>
<rect x="23.0693" y="207.702" width="25.605" height="23.5585" stroke="white"/>
<rect x="82.7725" y="207.2" width="27.6516" height="21.5119" stroke="white"/>
<rect x="144.494" y="207.702" width="25.605" height="23.5585" stroke="white"/>
<rect x="53.4277" y="185.255" width="25.605" height="23.5585" stroke="white"/>
<rect x="113.469" y="184.688" width="27.6516" height="19.4654" stroke="white"/>
<rect x="174.851" y="185.255" width="25.605" height="23.5585" stroke="white"/>
<rect x="51.7314" y="139.665" width="29.3569" height="21.4469" stroke="white"/>
<rect x="112.443" y="139.665" width="29.3569" height="21.4469" stroke="white"/>
<rect x="173.156" y="139.665" width="29.3569" height="21.4469" stroke="white"/>
<rect x="21.377" y="139.665" width="29.3569" height="21.4469" fill="white" stroke="white"/>
<rect x="82.0889" y="139.665" width="29.3569" height="21.4469" fill="white" stroke="white"/>
<rect x="142.802" y="139.665" width="29.3569" height="21.4469" fill="white" stroke="white"/>
<rect x="53.4277" y="140.86" width="25.605" height="23.5585" stroke="white"/>
<rect x="114.137" y="140.86" width="25.605" height="23.5585" stroke="white"/>
<rect x="174.851" y="140.86" width="25.605" height="23.5585" stroke="white"/>
<rect x="29.209" y="276.591" width="13.6888" height="15.7104" fill="#E68E38" stroke="white"/>
<rect x="89.9219" y="276.591" width="13.6888" height="15.7104" fill="#E68E38" stroke="white"/>
<rect x="150.634" y="276.591" width="13.6888" height="15.7104" fill="#E68E38" stroke="white"/>
<rect x="29.209" y="298.789" width="44.0457" height="15.7104" fill="#E68E38" stroke="white"/>
<rect x="89.9219" y="298.789" width="44.0457" height="15.7104" fill="#E68E38" stroke="white"/>
<rect x="150.634" y="298.789" width="44.0457" height="15.7104" fill="#E68E38" stroke="white"/>
<rect x="59.5674" y="254.144" width="13.6888" height="15.7104" fill="#E68E38" stroke="white"/>
<rect x="120.276" y="254.144" width="13.6888" height="15.7104" fill="#E68E38" stroke="white"/>
<rect x="180.99" y="254.144" width="13.6888" height="15.7104" fill="#E68E38" stroke="white"/>
<rect x="29.209" y="187.552" width="13.6888" height="15.7104" fill="#E68E38" stroke="white"/>
<rect x="89.9219" y="187.552" width="13.6888" height="15.7104" fill="#E68E38" stroke="white"/>
<rect x="150.634" y="187.552" width="13.6888" height="15.7104" fill="#E68E38" stroke="white"/>
<rect x="59.5674" y="165.104" width="13.6888" height="15.7104" fill="#E68E38" stroke="white"/>
<rect x="120.276" y="165.104" width="13.6888" height="15.7104" fill="#E68E38" stroke="white"/>
<rect x="180.99" y="165.104" width="13.6888" height="15.7104" fill="#E68E38" stroke="white"/>
<rect x="29.209" y="231.946" width="13.6888" height="15.7104" fill="#E68E38" stroke="white"/>
<rect x="89.9219" y="231.946" width="13.6888" height="15.7104" fill="#E68E38" stroke="white"/>
<rect x="150.634" y="231.946" width="13.6888" height="15.7104" fill="#E68E38" stroke="white"/>
<rect x="59.5674" y="209.499" width="13.6888" height="15.7104" fill="#E68E38" stroke="white"/>
<rect x="120.276" y="209.499" width="13.6888" height="15.7104" fill="#E68E38" stroke="white"/>
<rect x="180.99" y="209.499" width="13.6888" height="15.7104" fill="#E68E38" stroke="white"/>
<rect x="29.209" y="142.907" width="13.6888" height="15.7104" fill="#E68E38" stroke="white"/>
<rect x="89.9219" y="142.907" width="13.6888" height="15.7104" fill="#E68E38" stroke="white"/>
<rect x="150.634" y="142.907" width="13.6888" height="15.7104" fill="#E68E38" stroke="white"/>
</g>
<path d="M349.715 367.594H350.215V367.094V296V295.5H349.715H348.201H348.117L348.038 295.527L316.837 306.318L316.5 306.435V306.791V319.291V319.958L317.14 319.771L332.711 315.222V367.094V367.594H333.211H349.715Z" stroke="white"/>
<path opacity="0.25" d="M127 382.5H127.5V382V374.255V373.755H127H111.109L115.957 368.13C118.918 365.153 121.078 362.764 122.421 360.971C123.784 359.157 124.797 357.42 125.45 355.759L125.451 355.757C126.105 354.072 126.433 352.343 126.433 350.571C126.433 346.409 125.129 343.148 122.465 340.868C119.835 338.599 116.115 337.5 111.381 337.5C108.401 337.5 105.691 338.153 103.26 339.467C100.83 340.78 98.9254 342.612 97.5545 344.956C96.1847 347.279 95.5 349.819 95.5 352.567V353.067H96H106.017H106.517V352.567C106.517 350.704 106.97 349.196 107.843 348.008L107.845 348.005C108.706 346.814 109.795 346.245 111.144 346.245C112.572 346.245 113.592 346.691 114.287 347.525C114.994 348.374 115.386 349.661 115.386 351.465C115.386 352.499 115 353.767 114.166 355.283C113.336 356.793 112.081 358.516 110.389 360.453L96.5259 375.103L96.3891 375.247V375.446V382V382.5H96.8891H127Z" stroke="white"/>
</svg>
