<svg width="637" height="651" viewBox="0 0 637 651" fill="none" xmlns="http://www.w3.org/2000/svg">
<path d="M282.794 255.993L282.888 255.926C283.715 255.381 284.717 255.171 285.694 255.342C286.708 255.519 287.612 256.094 288.209 256.941C288.805 257.788 289.045 258.839 288.875 259.864C288.705 260.889 288.14 261.803 287.303 262.408C284.157 264.651 281.461 267.473 279.359 270.725C279.078 271.158 278.716 271.53 278.294 271.821C277.871 272.112 277.395 272.317 276.894 272.423C276.393 272.529 275.876 272.535 275.373 272.44C274.869 272.345 274.389 272.151 273.96 271.869C273.531 271.587 273.161 271.223 272.871 270.797C272.581 270.371 272.378 269.891 272.272 269.385C272.167 268.879 272.161 268.358 272.255 267.85C272.35 267.342 272.543 266.858 272.823 266.425L272.824 266.425C275.463 262.345 278.846 258.805 282.794 255.993Z" stroke="#E68E38"/>
<path d="M202.77 446.136H202.877C203.872 446.163 204.821 446.573 205.528 447.285C206.26 448.022 206.672 449.022 206.672 450.066C206.672 451.11 206.26 452.111 205.528 452.848C204.796 453.585 203.804 453.998 202.77 453.998H133.982C132.948 453.998 131.955 453.585 131.223 452.848C130.491 452.111 130.079 451.11 130.079 450.066C130.079 449.022 130.491 448.022 131.223 447.285C131.955 446.548 132.948 446.134 133.982 446.134H161.694H162.194V445.634V242.304C162.194 242.228 162.2 242.151 162.207 242.052L162.208 242.031L162.209 242.014L162.21 241.998C162.414 202.492 192.942 170.46 230.388 170.46C266.676 170.46 296.467 200.542 298.459 238.359L298.481 238.782L298.902 238.829C308.261 239.89 316.906 244.381 323.188 251.447C329.47 258.514 332.95 267.661 332.962 277.145V284.069C332.962 285.113 332.55 286.114 331.818 286.851C331.086 287.588 330.093 288.001 329.06 288.001H311.076H310.695L310.594 288.369C308.703 295.266 302.594 300.33 295.47 300.33C288.345 300.33 282.236 295.263 280.344 288.369L280.243 288.001H279.862H260.271C259.237 288.001 258.245 287.588 257.512 286.851C256.78 286.114 256.368 285.113 256.368 284.069V277.145C256.381 267.704 259.831 258.594 266.063 251.54C272.295 244.486 280.878 239.976 290.189 238.862L290.656 238.806L290.629 238.336C288.649 204.92 262.418 178.326 230.387 178.326C197.067 178.326 170.01 207.095 170.01 242.394C170.01 242.409 170.009 242.426 170.006 242.464L170.006 242.468C170.004 242.501 170 242.552 170 242.608V445.636V446.136H170.5H202.77ZM289.391 288.003H288.495L288.966 288.766C289.654 289.88 290.609 290.803 291.744 291.45C292.878 292.097 294.157 292.447 295.461 292.468L295.469 291.968L295.477 292.468C296.781 292.447 298.059 292.096 299.194 291.45C300.328 290.803 301.283 289.88 301.971 288.766L302.442 288.003H301.546H289.391ZM324.656 280.138H325.156V279.638V277.145C325.156 269.006 321.945 261.199 316.227 255.443C310.509 249.687 302.753 246.452 294.665 246.452C286.577 246.452 278.821 249.687 273.103 255.443C267.385 261.199 264.173 269.006 264.173 277.145V279.638V280.138H264.673H324.656Z" stroke="#E68E38"/>
<path d="M469.788 377.158V347.834C469.744 342.888 467.754 338.162 464.253 334.691C460.752 331.221 456.027 329.291 451.114 329.323H370.553C368.101 329.311 365.67 329.789 363.402 330.731C361.135 331.673 359.076 333.06 357.346 334.81C356.984 335.179 356.642 335.559 356.314 335.95C354.55 333.868 352.357 332.197 349.887 331.053C347.417 329.908 344.73 329.318 342.011 329.323H260.993C256.08 329.291 251.354 331.221 247.853 334.691C244.352 338.162 242.362 342.888 242.318 347.834V377.243C237.048 377.712 232.141 380.14 228.552 384.053C224.964 387.967 222.951 393.085 222.907 398.41V450.07C222.907 451.245 223.371 452.372 224.197 453.204C225.022 454.035 226.142 454.502 227.31 454.502H261.443C262.61 454.502 263.73 454.035 264.556 453.204C265.381 452.372 265.845 451.245 265.845 450.07V444.166L447.643 444.222V450.07C447.643 451.245 448.107 452.372 448.933 453.204C449.758 454.035 450.878 454.502 452.046 454.502H486.178C487.345 454.502 488.465 454.035 489.291 453.204C490.116 452.372 490.58 451.245 490.58 450.07V398.408C490.53 392.843 488.333 387.515 484.454 383.55C480.574 379.585 475.315 377.293 469.788 377.158V377.158ZM363.583 341.063C364.497 340.142 365.584 339.413 366.781 338.918C367.977 338.424 369.26 338.174 370.553 338.183H451.114C453.692 338.148 456.179 339.144 458.029 340.952C459.879 342.761 460.942 345.234 460.983 347.829V378.727C457.065 380.295 453.702 383.007 451.325 386.513C448.948 390.02 447.666 394.161 447.643 398.406V400.142L360.708 400.12L360.719 348.276C360.698 346.942 360.94 345.618 361.431 344.38C361.923 343.142 362.654 342.014 363.583 341.063V341.063ZM260.993 338.183H342.009C344.589 338.148 347.076 339.144 348.927 340.954C350.777 342.763 351.839 345.237 351.879 347.834L351.899 400.117L265.845 400.094V398.409C265.817 393.912 264.379 389.538 261.735 385.913C259.091 382.288 255.377 379.597 251.122 378.224V347.834C251.164 345.238 252.226 342.764 254.076 340.955C255.926 339.146 258.414 338.15 260.993 338.185V338.183ZM257.04 445.633H231.712V398.408C231.803 395.088 233.177 391.933 235.542 389.617C237.907 387.301 241.076 386.004 244.376 386.004C247.676 386.004 250.845 387.301 253.211 389.617C255.576 391.933 256.95 395.088 257.04 398.408V445.633ZM265.845 435.297V408.957L356.299 408.982H356.306L447.642 409.008V435.356L265.845 435.297ZM481.775 445.636H456.448V398.408C456.535 395.085 457.907 391.928 460.273 389.609C462.638 387.289 465.81 385.991 469.112 385.991C472.414 385.991 475.585 387.289 477.95 389.609C480.316 391.928 481.688 395.085 481.775 398.408V445.636Z" fill="#E68E38"/>
<path d="M65.5174 406.094C66.0713 404.066 66.0638 401.867 65.3723 399.759C49.6304 351.794 48.5022 300.099 62.109 250.266C73.8232 207.364 96.2012 167.893 126.825 136.117C130.915 131.874 131.022 125.106 127.07 121C123.116 116.892 116.597 117.001 112.509 121.244C79.2895 155.712 55.0143 198.529 42.3077 245.066C27.5482 299.121 28.7741 355.202 45.8534 407.246C47.6685 412.777 53.5091 415.585 58.8994 413.517C62.2357 412.237 64.6176 409.39 65.5174 406.094V406.094Z" fill="#E68E38"/>
<path d="M197.524 66.032L197.997 66.1935L198.209 66.642C255.025 39.5491 318.186 33.122 378.237 48.7042C447.184 66.595 504.331 111.21 539.149 174.341C573.969 237.474 582.287 311.557 562.569 382.954C542.85 454.351 497.459 514.499 434.757 552.325C372.056 590.152 299.557 601.126 230.61 583.235C178.108 569.612 132.056 540.265 97.4292 498.365C93.9119 494.108 94.5126 487.599 98.792 483.836L98.4619 483.465L98.792 483.836C103.06 480.083 109.355 480.499 112.863 484.744C144.901 523.512 187.523 550.672 236.12 563.282C367.874 597.47 505.674 514.313 543.333 377.964C580.99 241.613 504.479 102.847 372.727 68.6589C316.81 54.1493 257.98 60.2489 205.156 85.7014L204.068 86.2256L205.198 86.6193L213.141 89.3864C218.054 91.0985 220.694 96.4515 219.266 101.623C219.194 101.885 219.111 102.147 219.017 102.407L219.49 102.569L219.017 102.408C217.078 107.808 211.306 110.688 206.147 108.89L175.438 98.1901C172.958 97.3261 170.941 95.4728 169.837 93.0309L169.837 93.0307C168.732 90.5904 168.633 87.7612 169.561 85.1684L181.005 53.2868C182.944 47.8864 188.717 45.0066 193.875 46.8044C199.035 48.6029 201.685 54.4153 199.752 59.8255C199.751 59.8256 199.751 59.826 199.751 59.8261L197.524 66.032Z" stroke="#E68E38"/>
</svg>
