<svg width="518" height="518" viewBox="0 0 518 518" fill="none" xmlns="http://www.w3.org/2000/svg">
<mask id="path-1-inside-1_563:19" fill="white">
<path d="M21.7556 374.103H49.9477V396.42C49.9477 435.019 83.838 466.422 125.495 466.422C135.424 466.422 143.502 473.907 143.502 483.104V503.046C143.502 511.289 150.74 518 159.641 518H199.063C203.588 518 207.252 514.601 207.252 510.412C207.252 506.219 203.588 502.824 199.063 502.824H159.88V483.104C159.88 465.537 144.453 451.246 125.495 451.246C92.8714 451.246 66.3299 426.649 66.3299 396.42V373.447C66.3299 365.44 59.2968 358.923 50.6557 358.923H21.7556C17.0043 358.923 14.6329 353.627 17.9981 350.513L38.0908 331.895C56.2984 315.02 66.3299 292.584 66.3299 268.718V248.618C66.3299 191.001 106.933 141.822 165.096 126.141L163.428 128.943C159.547 135.46 164.661 143.459 172.675 143.459H208.024V231.079C208.024 241.093 222.594 244.603 227.831 235.81C233.346 226.546 277.127 153.03 282.65 143.759C301.28 155.749 316.348 171.7 326.704 190.424L276.009 244.298C267.995 252.815 277.54 264.58 288.118 259.862L341.184 236.185C341.615 240.311 341.832 244.468 341.832 248.622V295.861L295.036 301.346C284.591 302.567 283.017 315.893 292.558 319.407L338.326 336.27C333.217 356.86 322.605 376.008 307.409 391.966C292.204 407.928 283.831 429.178 283.831 451.8V502.824H237.282C232.757 502.824 229.093 506.223 229.093 510.412C229.093 514.605 232.757 518 237.282 518H283.951C292.916 518 300.209 511.242 300.209 502.935V451.8C300.209 432.877 307.127 415.196 319.688 402.008C336.134 384.738 347.778 364.12 353.698 341.933L409.664 362.551C416.855 365.203 424.442 359.69 423.478 352.635L419.998 327.133L495.993 318.229C506.361 317.016 508.161 303.737 498.467 300.164L381.365 257.02C374.213 254.384 366.582 259.842 367.55 266.936L371.031 292.434L358.214 293.94V248.618C358.214 242.133 357.732 235.628 356.794 229.218L456.865 184.568C464.107 181.335 465.984 172.328 460.107 167.582L433.463 146.055L515.02 59.3871C523.034 50.8705 513.488 39.1053 502.911 43.824L334.164 119.118C326.926 122.351 325.049 131.353 330.926 136.1L357.566 157.631L338.194 178.217C326.503 159.097 310.283 142.806 290.592 130.429L301.621 111.91C305.494 105.393 300.38 97.3977 292.37 97.3977H257.021V81.7556C257.021 77.5664 253.357 74.1677 248.832 74.1677C244.307 74.1677 240.643 77.5664 240.643 81.7556V102.788C240.643 108.183 245.378 112.573 251.204 112.573H282.514L272.563 129.287L224.406 210.149V138.068C224.406 132.67 219.668 128.279 213.842 128.279H182.532L240.643 30.7033V46.3454C240.643 50.5346 244.307 53.9333 248.832 53.9333C253.357 53.9333 257.021 50.5346 257.021 46.3454V9.77336C257.021 -0.28059 242.473 -3.78208 237.214 5.04674L175.767 108.222C141.506 114.131 110.213 130.788 87.2927 155.417C63.2121 181.295 49.952 214.393 49.952 248.618V268.718C49.952 288.53 41.6266 307.151 26.5069 321.161L6.41842 339.779C-7.39615 352.572 2.64383 374.103 21.7556 374.103ZM379.267 306.768C384.82 306.12 388.761 301.405 388.061 296.264L385.123 274.741L469.934 305.986L411.758 312.803C406.209 313.455 402.268 318.166 402.968 323.311L405.906 344.834L321.095 313.589C330.197 312.518 370.92 307.748 379.267 306.768ZM449.342 179.023C449.337 179.023 449.337 179.019 449.333 179.019L449.342 179.023ZM373.287 164.013C377.377 159.666 377.143 153.307 372.715 149.734L348.021 129.781L484.243 68.9984L417.742 139.669C413.669 143.996 413.925 150.402 418.313 153.951L443.008 173.905L306.786 234.687C314.566 226.416 365.67 172.111 373.287 164.013Z"/>
</mask>
<path d="M21.7556 374.103H49.9477V396.42C49.9477 435.019 83.838 466.422 125.495 466.422C135.424 466.422 143.502 473.907 143.502 483.104V503.046C143.502 511.289 150.74 518 159.641 518H199.063C203.588 518 207.252 514.601 207.252 510.412C207.252 506.219 203.588 502.824 199.063 502.824H159.88V483.104C159.88 465.537 144.453 451.246 125.495 451.246C92.8714 451.246 66.3299 426.649 66.3299 396.42V373.447C66.3299 365.44 59.2968 358.923 50.6557 358.923H21.7556C17.0043 358.923 14.6329 353.627 17.9981 350.513L38.0908 331.895C56.2984 315.02 66.3299 292.584 66.3299 268.718V248.618C66.3299 191.001 106.933 141.822 165.096 126.141L163.428 128.943C159.547 135.46 164.661 143.459 172.675 143.459H208.024V231.079C208.024 241.093 222.594 244.603 227.831 235.81C233.346 226.546 277.127 153.03 282.65 143.759C301.28 155.749 316.348 171.7 326.704 190.424L276.009 244.298C267.995 252.815 277.54 264.58 288.118 259.862L341.184 236.185C341.615 240.311 341.832 244.468 341.832 248.622V295.861L295.036 301.346C284.591 302.567 283.017 315.893 292.558 319.407L338.326 336.27C333.217 356.86 322.605 376.008 307.409 391.966C292.204 407.928 283.831 429.178 283.831 451.8V502.824H237.282C232.757 502.824 229.093 506.223 229.093 510.412C229.093 514.605 232.757 518 237.282 518H283.951C292.916 518 300.209 511.242 300.209 502.935V451.8C300.209 432.877 307.127 415.196 319.688 402.008C336.134 384.738 347.778 364.12 353.698 341.933L409.664 362.551C416.855 365.203 424.442 359.69 423.478 352.635L419.998 327.133L495.993 318.229C506.361 317.016 508.161 303.737 498.467 300.164L381.365 257.02C374.213 254.384 366.582 259.842 367.55 266.936L371.031 292.434L358.214 293.94V248.618C358.214 242.133 357.732 235.628 356.794 229.218L456.865 184.568C464.107 181.335 465.984 172.328 460.107 167.582L433.463 146.055L515.02 59.3871C523.034 50.8705 513.488 39.1053 502.911 43.824L334.164 119.118C326.926 122.351 325.049 131.353 330.926 136.1L357.566 157.631L338.194 178.217C326.503 159.097 310.283 142.806 290.592 130.429L301.621 111.91C305.494 105.393 300.38 97.3977 292.37 97.3977H257.021V81.7556C257.021 77.5664 253.357 74.1677 248.832 74.1677C244.307 74.1677 240.643 77.5664 240.643 81.7556V102.788C240.643 108.183 245.378 112.573 251.204 112.573H282.514L272.563 129.287L224.406 210.149V138.068C224.406 132.67 219.668 128.279 213.842 128.279H182.532L240.643 30.7033V46.3454C240.643 50.5346 244.307 53.9333 248.832 53.9333C253.357 53.9333 257.021 50.5346 257.021 46.3454V9.77336C257.021 -0.28059 242.473 -3.78208 237.214 5.04674L175.767 108.222C141.506 114.131 110.213 130.788 87.2927 155.417C63.2121 181.295 49.952 214.393 49.952 248.618V268.718C49.952 288.53 41.6266 307.151 26.5069 321.161L6.41842 339.779C-7.39615 352.572 2.64383 374.103 21.7556 374.103ZM379.267 306.768C384.82 306.12 388.761 301.405 388.061 296.264L385.123 274.741L469.934 305.986L411.758 312.803C406.209 313.455 402.268 318.166 402.968 323.311L405.906 344.834L321.095 313.589C330.197 312.518 370.92 307.748 379.267 306.768ZM449.342 179.023C449.337 179.023 449.337 179.019 449.333 179.019L449.342 179.023ZM373.287 164.013C377.377 159.666 377.143 153.307 372.715 149.734L348.021 129.781L484.243 68.9984L417.742 139.669C413.669 143.996 413.925 150.402 418.313 153.951L443.008 173.905L306.786 234.687C314.566 226.416 365.67 172.111 373.287 164.013Z" stroke="#E68E38" stroke-width="2" mask="url(#path-1-inside-1_563:19)"/>
<path d="M124.186 303.104C121.942 299.857 119.665 297.179 119.643 297.152L118.987 296.383L118.332 297.152C118.309 297.179 116.033 299.857 113.789 303.104C110.719 307.547 109.162 310.911 109.162 313.103C109.162 318.444 113.57 322.789 118.987 322.789C124.405 322.789 128.812 318.444 128.812 313.103C128.812 310.911 127.256 307.547 124.186 303.104Z" fill="#E68E38"/>
<path d="M249 53L248.357 21.7962C248.253 16.7846 241.661 15.0256 239.075 19.3197L173.065 128.92C171.058 132.253 173.458 136.5 177.348 136.5H211C213.761 136.5 216 138.739 216 141.5V223.761C216 228.882 222.784 230.692 225.335 226.252L290.696 112.491C292.611 109.158 290.205 105 286.361 105H254C251.239 105 249 102.761 249 100V75" stroke="#E68E38" stroke-width="5"/>
</svg>
