<svg width="507" height="550" viewBox="0 0 507 550" fill="none" xmlns="http://www.w3.org/2000/svg">
<path d="M423.025 17.659C459.736 44.082 472.218 107.204 482.497 160.05C493.511 212.896 503.056 254.732 505.993 298.771C508.93 343.543 505.993 389.049 489.84 432.354C472.952 474.924 443.583 515.293 403.934 534.376C363.552 552.725 314.358 550.523 265.165 549.055C216.705 547.587 168.246 546.853 132.269 526.302C95.5571 505.751 71.3275 464.648 52.9717 422.812C35.3501 380.976 24.3367 339.139 13.3232 290.697C2.3097 242.989 -8.70376 187.941 10.3863 149.04C30.2105 109.406 79.404 85.9185 126.395 64.6333C173.386 44.082 218.908 26.4667 272.507 13.2552C325.372 -0.690322 386.313 -9.49798 423.025 17.659Z" fill="#E68E38" fill-opacity="0.07"/>
</svg>
