<svg width="232" height="30" viewBox="0 0 232 30" fill="none" xmlns="http://www.w3.org/2000/svg">
<path d="M0.77 5.86V13H1.45V5.86H0.77ZM2.8068 7.84V13H3.4368V9.99C3.44346 9.73667 3.48346 9.50333 3.5568 9.29C3.6368 9.07 3.74346 8.88333 3.8768 8.73C4.0168 8.57 4.18346 8.44667 4.3768 8.36C4.5768 8.26667 4.80346 8.22 5.0568 8.22C5.31013 8.22 5.52013 8.26 5.6868 8.34C5.86013 8.42 5.9968 8.53 6.0968 8.67C6.1968 8.81 6.2668 8.97667 6.3068 9.17C6.3468 9.35667 6.3668 9.56 6.3668 9.78V13H6.9968V9.68C6.9968 9.37333 6.9668 9.09667 6.9068 8.85C6.8468 8.60333 6.74346 8.39667 6.5968 8.23C6.45013 8.05667 6.25346 7.92333 6.0068 7.83C5.7668 7.73667 5.4668 7.69 5.1068 7.69C4.74013 7.69 4.40346 7.78667 4.0968 7.98C3.79013 8.16667 3.5768 8.41667 3.4568 8.73H3.4368V7.84H2.8068ZM7.60789 7.84L9.59789 13H10.2679L12.1979 7.84H11.5479L9.94789 12.37H9.92789L8.30789 7.84H7.60789ZM16.5268 10.06H13.1868C13.2135 9.82667 13.2668 9.6 13.3468 9.38C13.4335 9.15333 13.5468 8.95667 13.6868 8.79C13.8268 8.61667 13.9968 8.48 14.1968 8.38C14.3968 8.27333 14.6268 8.22 14.8868 8.22C15.1401 8.22 15.3668 8.27333 15.5668 8.38C15.7668 8.48 15.9368 8.61667 16.0768 8.79C16.2168 8.95667 16.3235 9.15 16.3968 9.37C16.4768 9.59 16.5201 9.82 16.5268 10.06ZM13.1868 10.59H17.1568C17.1701 10.23 17.1368 9.87667 17.0568 9.53C16.9768 9.17667 16.8435 8.86667 16.6568 8.6C16.4768 8.32667 16.2401 8.10667 15.9468 7.94C15.6535 7.77333 15.3001 7.69 14.8868 7.69C14.4801 7.69 14.1268 7.77 13.8268 7.93C13.5335 8.08333 13.2935 8.29 13.1068 8.55C12.9201 8.80333 12.7801 9.09333 12.6868 9.42C12.6001 9.74667 12.5568 10.08 12.5568 10.42C12.5568 10.7867 12.6001 11.1367 12.6868 11.47C12.7801 11.7967 12.9201 12.0867 13.1068 12.34C13.2935 12.5867 13.5335 12.7833 13.8268 12.93C14.1268 13.07 14.4801 13.14 14.8868 13.14C15.5401 13.14 16.0435 12.98 16.3968 12.66C16.7568 12.34 17.0035 11.8867 17.1368 11.3H16.5068C16.4068 11.7 16.2268 12.02 15.9668 12.26C15.7068 12.5 15.3468 12.62 14.8868 12.62C14.5868 12.62 14.3301 12.5567 14.1168 12.43C13.9035 12.3033 13.7268 12.1433 13.5868 11.95C13.4468 11.7567 13.3435 11.54 13.2768 11.3C13.2168 11.0533 13.1868 10.8167 13.1868 10.59ZM21.0923 9.35H21.7223C21.709 9.07 21.6523 8.82667 21.5523 8.62C21.4523 8.41333 21.3157 8.24 21.1423 8.1C20.9757 7.96 20.779 7.85667 20.5523 7.79C20.3323 7.72333 20.0923 7.69 19.8323 7.69C19.6057 7.69 19.3757 7.71667 19.1423 7.77C18.9157 7.82333 18.709 7.90667 18.5223 8.02C18.3357 8.13333 18.1823 8.28333 18.0623 8.47C17.949 8.65667 17.8923 8.88 17.8923 9.14C17.8923 9.36 17.929 9.54667 18.0023 9.7C18.0757 9.84667 18.1757 9.97333 18.3023 10.08C18.4357 10.18 18.589 10.2667 18.7623 10.34C18.9357 10.4067 19.1257 10.4667 19.3323 10.52L20.1423 10.7C20.2823 10.7333 20.419 10.7733 20.5523 10.82C20.6923 10.8667 20.8157 10.9267 20.9223 11C21.029 11.0667 21.1123 11.1533 21.1723 11.26C21.239 11.36 21.2723 11.4867 21.2723 11.64C21.2723 11.82 21.2257 11.9733 21.1323 12.1C21.0457 12.22 20.9323 12.32 20.7923 12.4C20.6523 12.48 20.499 12.5367 20.3323 12.57C20.1723 12.6033 20.0157 12.62 19.8623 12.62C19.4423 12.62 19.089 12.5133 18.8023 12.3C18.5223 12.08 18.369 11.7567 18.3423 11.33H17.7123C17.7657 11.9633 17.979 12.4233 18.3523 12.71C18.7323 12.9967 19.2257 13.14 19.8323 13.14C20.0723 13.14 20.3157 13.1133 20.5623 13.06C20.809 13.0067 21.029 12.92 21.2223 12.8C21.4223 12.6733 21.5857 12.5133 21.7123 12.32C21.839 12.12 21.9023 11.88 21.9023 11.6C21.9023 11.3733 21.859 11.1767 21.7723 11.01C21.6857 10.8433 21.5723 10.7033 21.4323 10.59C21.299 10.4767 21.1423 10.3867 20.9623 10.32C20.789 10.2467 20.6123 10.1967 20.4323 10.17L19.5923 9.98C19.4857 9.95333 19.369 9.92 19.2423 9.88C19.1157 9.83333 18.999 9.77667 18.8923 9.71C18.7857 9.64333 18.6957 9.56333 18.6223 9.47C18.5557 9.37 18.5223 9.25 18.5223 9.11C18.5223 8.94333 18.559 8.80333 18.6323 8.69C18.7057 8.57667 18.8023 8.48667 18.9223 8.42C19.0423 8.34667 19.1723 8.29667 19.3123 8.27C19.459 8.23667 19.6023 8.22 19.7423 8.22C19.9223 8.22 20.0923 8.24333 20.2523 8.29C20.4123 8.33 20.5523 8.39667 20.6723 8.49C20.799 8.58333 20.899 8.70333 20.9723 8.85C21.0457 8.99 21.0857 9.15667 21.0923 9.35ZM23.8168 7.84V6.29H23.1868V7.84H22.2868V8.37H23.1868V11.9C23.1801 12.34 23.2601 12.6433 23.4268 12.81C23.5935 12.97 23.8868 13.05 24.3068 13.05C24.4001 13.05 24.4935 13.0467 24.5868 13.04C24.6801 13.0333 24.7735 13.03 24.8668 13.03V12.5C24.6868 12.52 24.5068 12.53 24.3268 12.53C24.1001 12.5167 23.9568 12.4533 23.8968 12.34C23.8435 12.22 23.8168 12.0567 23.8168 11.85V8.37H24.8668V7.84H23.8168ZM25.7758 7.84V13H26.4058V10.12C26.4058 9.84667 26.4358 9.59667 26.4958 9.37C26.5558 9.13667 26.6458 8.93667 26.7658 8.77C26.8924 8.59667 27.0524 8.46333 27.2458 8.37C27.4458 8.27 27.6791 8.22 27.9458 8.22C28.1458 8.22 28.3158 8.25333 28.4558 8.32C28.5958 8.38667 28.7058 8.48 28.7858 8.6C28.8724 8.71333 28.9324 8.85 28.9658 9.01C29.0058 9.16333 29.0258 9.32667 29.0258 9.5V13H29.6558V10.08C29.6558 9.84 29.6758 9.61 29.7158 9.39C29.7624 9.16333 29.8391 8.96333 29.9458 8.79C30.0524 8.61667 30.1958 8.48 30.3758 8.38C30.5558 8.27333 30.7824 8.22 31.0558 8.22C31.5091 8.22 31.8258 8.33333 32.0058 8.56C32.1858 8.78 32.2758 9.10333 32.2758 9.53V13H32.9058V9.5C32.9058 8.29333 32.3358 7.69 31.1958 7.69C30.8558 7.69 30.5358 7.77333 30.2358 7.94C29.9358 8.10667 29.7091 8.36 29.5558 8.7C29.4624 8.36 29.2758 8.10667 28.9958 7.94C28.7224 7.77333 28.4158 7.69 28.0758 7.69C27.6558 7.69 27.3091 7.78 27.0358 7.96C26.7691 8.14 26.5524 8.39 26.3858 8.71H26.3558V7.84H25.7758ZM37.8159 10.06H34.4759C34.5025 9.82667 34.5559 9.6 34.6359 9.38C34.7225 9.15333 34.8359 8.95667 34.9759 8.79C35.1159 8.61667 35.2859 8.48 35.4859 8.38C35.6859 8.27333 35.9159 8.22 36.1759 8.22C36.4292 8.22 36.6559 8.27333 36.8559 8.38C37.0559 8.48 37.2259 8.61667 37.3659 8.79C37.5059 8.95667 37.6125 9.15 37.6859 9.37C37.7659 9.59 37.8092 9.82 37.8159 10.06ZM34.4759 10.59H38.4459C38.4592 10.23 38.4259 9.87667 38.3459 9.53C38.2659 9.17667 38.1325 8.86667 37.9459 8.6C37.7659 8.32667 37.5292 8.10667 37.2359 7.94C36.9425 7.77333 36.5892 7.69 36.1759 7.69C35.7692 7.69 35.4159 7.77 35.1159 7.93C34.8225 8.08333 34.5825 8.29 34.3959 8.55C34.2092 8.80333 34.0692 9.09333 33.9759 9.42C33.8892 9.74667 33.8459 10.08 33.8459 10.42C33.8459 10.7867 33.8892 11.1367 33.9759 11.47C34.0692 11.7967 34.2092 12.0867 34.3959 12.34C34.5825 12.5867 34.8225 12.7833 35.1159 12.93C35.4159 13.07 35.7692 13.14 36.1759 13.14C36.8292 13.14 37.3325 12.98 37.6859 12.66C38.0459 12.34 38.2925 11.8867 38.4259 11.3H37.7959C37.6959 11.7 37.5159 12.02 37.2559 12.26C36.9959 12.5 36.6359 12.62 36.1759 12.62C35.8759 12.62 35.6192 12.5567 35.4059 12.43C35.1925 12.3033 35.0159 12.1433 34.8759 11.95C34.7359 11.7567 34.6325 11.54 34.5659 11.3C34.5059 11.0533 34.4759 10.8167 34.4759 10.59ZM39.2814 7.84V13H39.9114V9.99C39.9181 9.73667 39.9581 9.50333 40.0314 9.29C40.1114 9.07 40.2181 8.88333 40.3514 8.73C40.4914 8.57 40.6581 8.44667 40.8514 8.36C41.0514 8.26667 41.2781 8.22 41.5314 8.22C41.7847 8.22 41.9947 8.26 42.1614 8.34C42.3347 8.42 42.4714 8.53 42.5714 8.67C42.6714 8.81 42.7414 8.97667 42.7814 9.17C42.8214 9.35667 42.8414 9.56 42.8414 9.78V13H43.4714V9.68C43.4714 9.37333 43.4414 9.09667 43.3814 8.85C43.3214 8.60333 43.2181 8.39667 43.0714 8.23C42.9247 8.05667 42.7281 7.92333 42.4814 7.83C42.2414 7.73667 41.9414 7.69 41.5814 7.69C41.2147 7.69 40.8781 7.78667 40.5714 7.98C40.2647 8.16667 40.0514 8.41667 39.9314 8.73H39.9114V7.84H39.2814ZM45.6625 7.84V6.29H45.0325V7.84H44.1325V8.37H45.0325V11.9C45.0258 12.34 45.1058 12.6433 45.2725 12.81C45.4392 12.97 45.7325 13.05 46.1525 13.05C46.2458 13.05 46.3392 13.0467 46.4325 13.04C46.5258 13.0333 46.6192 13.03 46.7125 13.03V12.5C46.5325 12.52 46.3525 12.53 46.1725 12.53C45.9458 12.5167 45.8025 12.4533 45.7425 12.34C45.6892 12.22 45.6625 12.0567 45.6625 11.85V8.37H46.7125V7.84H45.6625ZM5.94 17.02H6.62C6.57333 16.6467 6.46 16.3167 6.28 16.03C6.10667 15.7433 5.88667 15.5033 5.62 15.31C5.36 15.11 5.06667 14.96 4.74 14.86C4.42 14.76 4.09 14.71 3.75 14.71C3.19 14.71 2.69667 14.8133 2.27 15.02C1.85 15.22 1.5 15.4933 1.22 15.84C0.94 16.18 0.73 16.5733 0.59 17.02C0.45 17.4667 0.38 17.9367 0.38 18.43C0.38 18.9233 0.45 19.3933 0.59 19.84C0.73 20.2867 0.94 20.68 1.22 21.02C1.5 21.36 1.85 21.6333 2.27 21.84C2.69667 22.04 3.19 22.14 3.75 22.14C4.17 22.14 4.55 22.0733 4.89 21.94C5.23667 21.8067 5.53667 21.6167 5.79 21.37C6.04333 21.1233 6.25 20.8233 6.41 20.47C6.57 20.1167 6.67333 19.72 6.72 19.28H6.04C6.00667 19.6 5.93 19.9 5.81 20.18C5.69 20.4533 5.53333 20.6933 5.34 20.9C5.14667 21.1067 4.91667 21.27 4.65 21.39C4.38333 21.51 4.08333 21.57 3.75 21.57C3.27667 21.57 2.87 21.48 2.53 21.3C2.19 21.12 1.91 20.8833 1.69 20.59C1.47667 20.29 1.31667 19.9533 1.21 19.58C1.11 19.2 1.06 18.8167 1.06 18.43C1.06 18.0367 1.11 17.6533 1.21 17.28C1.31667 16.9067 1.47667 16.5733 1.69 16.28C1.91 15.98 2.19 15.74 2.53 15.56C2.87 15.38 3.27667 15.29 3.75 15.29C4.01 15.29 4.25667 15.33 4.49 15.41C4.73 15.4833 4.94667 15.5933 5.14 15.74C5.34 15.8867 5.50667 16.07 5.64 16.29C5.78 16.5033 5.88 16.7467 5.94 17.02ZM9.82102 17.22C10.121 17.22 10.3843 17.2833 10.611 17.41C10.8377 17.5367 11.0243 17.7033 11.171 17.91C11.3243 18.1167 11.4377 18.3533 11.511 18.62C11.591 18.88 11.631 19.1467 11.631 19.42C11.631 19.6933 11.591 19.9633 11.511 20.23C11.4377 20.49 11.3243 20.7233 11.171 20.93C11.0243 21.1367 10.8377 21.3033 10.611 21.43C10.3843 21.5567 10.121 21.62 9.82102 21.62C9.52102 21.62 9.25768 21.5567 9.03102 21.43C8.80435 21.3033 8.61435 21.1367 8.46102 20.93C8.31435 20.7233 8.20102 20.49 8.12102 20.23C8.04768 19.9633 8.01102 19.6933 8.01102 19.42C8.01102 19.1467 8.04768 18.88 8.12102 18.62C8.20102 18.3533 8.31435 18.1167 8.46102 17.91C8.61435 17.7033 8.80435 17.5367 9.03102 17.41C9.25768 17.2833 9.52102 17.22 9.82102 17.22ZM9.82102 16.69C9.42768 16.69 9.07768 16.7633 8.77102 16.91C8.47102 17.0567 8.21768 17.2533 8.01102 17.5C7.80435 17.7467 7.64768 18.0367 7.54102 18.37C7.43435 18.6967 7.38102 19.0467 7.38102 19.42C7.38102 19.7933 7.43435 20.1467 7.54102 20.48C7.64768 20.8067 7.80435 21.0933 8.01102 21.34C8.21768 21.5867 8.47102 21.7833 8.77102 21.93C9.07768 22.07 9.42768 22.14 9.82102 22.14C10.2143 22.14 10.561 22.07 10.861 21.93C11.1677 21.7833 11.4243 21.5867 11.631 21.34C11.8377 21.0933 11.9943 20.8067 12.101 20.48C12.2077 20.1467 12.261 19.7933 12.261 19.42C12.261 19.0467 12.2077 18.6967 12.101 18.37C11.9943 18.0367 11.8377 17.7467 11.631 17.5C11.4243 17.2533 11.1677 17.0567 10.861 16.91C10.561 16.7633 10.2143 16.69 9.82102 16.69ZM13.1977 16.84V22H13.8277V19.12C13.8277 18.8467 13.8577 18.5967 13.9177 18.37C13.9777 18.1367 14.0677 17.9367 14.1877 17.77C14.3143 17.5967 14.4743 17.4633 14.6677 17.37C14.8677 17.27 15.101 17.22 15.3677 17.22C15.5677 17.22 15.7377 17.2533 15.8777 17.32C16.0177 17.3867 16.1277 17.48 16.2077 17.6C16.2943 17.7133 16.3543 17.85 16.3877 18.01C16.4277 18.1633 16.4477 18.3267 16.4477 18.5V22H17.0777V19.08C17.0777 18.84 17.0977 18.61 17.1377 18.39C17.1843 18.1633 17.261 17.9633 17.3677 17.79C17.4743 17.6167 17.6177 17.48 17.7977 17.38C17.9777 17.2733 18.2043 17.22 18.4777 17.22C18.931 17.22 19.2477 17.3333 19.4277 17.56C19.6077 17.78 19.6977 18.1033 19.6977 18.53V22H20.3277V18.5C20.3277 17.2933 19.7577 16.69 18.6177 16.69C18.2777 16.69 17.9577 16.7733 17.6577 16.94C17.3577 17.1067 17.131 17.36 16.9777 17.7C16.8843 17.36 16.6977 17.1067 16.4177 16.94C16.1443 16.7733 15.8377 16.69 15.4977 16.69C15.0777 16.69 14.731 16.78 14.4577 16.96C14.191 17.14 13.9743 17.39 13.8077 17.71H13.7777V16.84H13.1977ZM21.5277 16.84V23.9H22.1577V21.02H22.1777C22.2444 21.2067 22.3377 21.37 22.4577 21.51C22.5844 21.65 22.7277 21.7667 22.8877 21.86C23.0477 21.9533 23.2211 22.0233 23.4077 22.07C23.5944 22.1167 23.7811 22.14 23.9677 22.14C24.3611 22.14 24.7011 22.07 24.9877 21.93C25.2811 21.7833 25.5244 21.5867 25.7177 21.34C25.9111 21.0867 26.0544 20.7967 26.1477 20.47C26.2411 20.1367 26.2877 19.7867 26.2877 19.42C26.2877 19.0533 26.2411 18.7067 26.1477 18.38C26.0544 18.0467 25.9111 17.7567 25.7177 17.51C25.5244 17.2567 25.2811 17.0567 24.9877 16.91C24.7011 16.7633 24.3611 16.69 23.9677 16.69C23.5477 16.69 23.1711 16.79 22.8377 16.99C22.5111 17.1833 22.2744 17.46 22.1277 17.82H22.1077V16.84H21.5277ZM25.6577 19.42C25.6577 19.6867 25.6244 19.9533 25.5577 20.22C25.4977 20.48 25.3977 20.7133 25.2577 20.92C25.1244 21.1267 24.9511 21.2967 24.7377 21.43C24.5244 21.5567 24.2677 21.62 23.9677 21.62C23.6344 21.62 23.3511 21.5567 23.1177 21.43C22.8911 21.2967 22.7044 21.1267 22.5577 20.92C22.4177 20.7133 22.3144 20.48 22.2477 20.22C22.1877 19.9533 22.1577 19.6867 22.1577 19.42C22.1577 19.1267 22.1844 18.8467 22.2377 18.58C22.2977 18.3133 22.3977 18.08 22.5377 17.88C22.6777 17.68 22.8644 17.52 23.0977 17.4C23.3311 17.28 23.6211 17.22 23.9677 17.22C24.2677 17.22 24.5244 17.2867 24.7377 17.42C24.9511 17.5467 25.1244 17.7133 25.2577 17.92C25.3977 18.1267 25.4977 18.3633 25.5577 18.63C25.6244 18.89 25.6577 19.1533 25.6577 19.42ZM27.2099 18.42H27.8399C27.8533 18 27.9866 17.6967 28.2399 17.51C28.4933 17.3167 28.8199 17.22 29.2199 17.22C29.4066 17.22 29.5799 17.2367 29.7399 17.27C29.9066 17.2967 30.0499 17.35 30.1699 17.43C30.2966 17.51 30.3933 17.62 30.4599 17.76C30.5333 17.8933 30.5699 18.0667 30.5699 18.28C30.5699 18.42 30.5499 18.5333 30.5099 18.62C30.4766 18.7067 30.4266 18.7767 30.3599 18.83C30.2933 18.8767 30.2099 18.91 30.1099 18.93C30.0099 18.95 29.8933 18.9667 29.7599 18.98C29.4199 19.02 29.0833 19.0633 28.7499 19.11C28.4233 19.15 28.1266 19.2233 27.8599 19.33C27.5999 19.4367 27.3899 19.5933 27.2299 19.8C27.0699 20 26.9899 20.28 26.9899 20.64C26.9899 20.9 27.0333 21.1267 27.1199 21.32C27.2133 21.5067 27.3366 21.6633 27.4899 21.79C27.6499 21.91 27.8333 21.9967 28.0399 22.05C28.2533 22.11 28.4799 22.14 28.7199 22.14C28.9733 22.14 29.1899 22.1167 29.3699 22.07C29.5566 22.0233 29.7199 21.9567 29.8599 21.87C30.0066 21.7833 30.1366 21.6767 30.2499 21.55C30.3699 21.4167 30.4866 21.2667 30.5999 21.1H30.6199C30.6199 21.2333 30.6266 21.3567 30.6399 21.47C30.6599 21.5767 30.6966 21.67 30.7499 21.75C30.8033 21.83 30.8766 21.8933 30.9699 21.94C31.0699 21.98 31.1999 22 31.3599 22C31.4466 22 31.5166 21.9967 31.5699 21.99C31.6299 21.9833 31.6966 21.9733 31.7699 21.96V21.43C31.7099 21.4567 31.6433 21.47 31.5699 21.47C31.3233 21.47 31.1999 21.3433 31.1999 21.09V18.35C31.1999 18.0033 31.1433 17.7233 31.0299 17.51C30.9166 17.29 30.7699 17.12 30.5899 17C30.4099 16.88 30.2066 16.8 29.9799 16.76C29.7533 16.7133 29.5266 16.69 29.2999 16.69C28.9999 16.69 28.7266 16.7233 28.4799 16.79C28.2333 16.8567 28.0166 16.96 27.8299 17.1C27.6499 17.24 27.5066 17.42 27.3999 17.64C27.2933 17.86 27.2299 18.12 27.2099 18.42ZM30.5699 19.18V20C30.5699 20.2533 30.5199 20.48 30.4199 20.68C30.3266 20.88 30.1966 21.05 30.0299 21.19C29.8699 21.33 29.6799 21.4367 29.4599 21.51C29.2399 21.5833 29.0099 21.62 28.7699 21.62C28.6233 21.62 28.4799 21.5967 28.3399 21.55C28.1999 21.5033 28.0766 21.4367 27.9699 21.35C27.8633 21.2567 27.7766 21.15 27.7099 21.03C27.6499 20.9033 27.6199 20.76 27.6199 20.6C27.6199 20.3467 27.6933 20.1533 27.8399 20.02C27.9933 19.88 28.1866 19.7733 28.4199 19.7C28.6533 19.6267 28.9099 19.5733 29.1899 19.54C29.4766 19.5 29.7533 19.4567 30.0199 19.41C30.1066 19.3967 30.2066 19.3733 30.3199 19.34C30.4333 19.3067 30.5099 19.2533 30.5499 19.18H30.5699ZM32.4455 16.84V22H33.0755V18.99C33.0821 18.7367 33.1221 18.5033 33.1955 18.29C33.2755 18.07 33.3821 17.8833 33.5155 17.73C33.6555 17.57 33.8221 17.4467 34.0155 17.36C34.2155 17.2667 34.4421 17.22 34.6955 17.22C34.9488 17.22 35.1588 17.26 35.3255 17.34C35.4988 17.42 35.6355 17.53 35.7355 17.67C35.8355 17.81 35.9055 17.9767 35.9455 18.17C35.9855 18.3567 36.0055 18.56 36.0055 18.78V22H36.6355V18.68C36.6355 18.3733 36.6055 18.0967 36.5455 17.85C36.4855 17.6033 36.3821 17.3967 36.2355 17.23C36.0888 17.0567 35.8921 16.9233 35.6455 16.83C35.4055 16.7367 35.1055 16.69 34.7455 16.69C34.3788 16.69 34.0421 16.7867 33.7355 16.98C33.4288 17.1667 33.2155 17.4167 33.0955 17.73H33.0755V16.84H32.4455ZM37.2466 16.84L39.3066 21.98L39.0866 22.56C39.0332 22.68 38.9832 22.79 38.9366 22.89C38.8899 22.99 38.8332 23.0733 38.7666 23.14C38.6999 23.2133 38.6199 23.27 38.5266 23.31C38.4399 23.35 38.3266 23.37 38.1866 23.37C38.1132 23.37 38.0399 23.3633 37.9666 23.35C37.8999 23.3433 37.8299 23.3333 37.7566 23.32V23.85C37.8099 23.87 37.8699 23.88 37.9366 23.88C38.0099 23.8867 38.1099 23.8933 38.2366 23.9C38.4366 23.9 38.5999 23.88 38.7266 23.84C38.8599 23.8067 38.9732 23.7467 39.0666 23.66C39.1666 23.58 39.2566 23.4667 39.3366 23.32C39.4166 23.18 39.5032 23 39.5966 22.78L41.8366 16.84H41.2066L39.6166 21.24L37.9166 16.84H37.2466Z" fill="black"/>
<path d="M58.44 2.404H58.16V1.808H58.548C58.6013 1.808 58.652 1.812 58.7 1.82C58.748 1.828 58.7907 1.844 58.828 1.868C58.868 1.88933 58.8987 1.91867 58.92 1.956C58.944 1.99333 58.956 2.04267 58.956 2.104C58.956 2.176 58.9413 2.23333 58.912 2.276C58.8827 2.316 58.844 2.34533 58.796 2.364C58.748 2.38267 58.692 2.39467 58.628 2.4C58.5667 2.40267 58.504 2.404 58.44 2.404ZM58.16 3.348V2.584H58.516L59 3.348H59.248L58.736 2.584C58.7947 2.57333 58.8493 2.55733 58.9 2.536C58.9533 2.512 59 2.48133 59.04 2.444C59.08 2.404 59.1107 2.356 59.132 2.3C59.156 2.244 59.168 2.17867 59.168 2.104C59.168 1.94933 59.1227 1.832 59.032 1.752C58.944 1.66933 58.8027 1.628 58.608 1.628H57.948V3.348H58.16ZM58.488 1.212C58.6667 1.212 58.832 1.24533 58.984 1.312C59.1387 1.37867 59.272 1.46933 59.384 1.584C59.496 1.69867 59.584 1.83333 59.648 1.988C59.712 2.14267 59.744 2.30933 59.744 2.488C59.744 2.66667 59.712 2.83333 59.648 2.988C59.584 3.14267 59.496 3.27733 59.384 3.392C59.272 3.50667 59.1387 3.59733 58.984 3.664C58.832 3.73067 58.6667 3.764 58.488 3.764C58.3067 3.764 58.1387 3.73067 57.984 3.664C57.832 3.59733 57.7 3.50667 57.588 3.392C57.476 3.27733 57.388 3.14267 57.324 2.988C57.2627 2.83333 57.232 2.66667 57.232 2.488C57.232 2.30933 57.2627 2.14267 57.324 1.988C57.388 1.83333 57.476 1.69867 57.588 1.584C57.7 1.46933 57.832 1.37867 57.984 1.312C58.1387 1.24533 58.3067 1.212 58.488 1.212ZM58.488 1C58.2773 1 58.0813 1.03867 57.9 1.116C57.7187 1.19067 57.5613 1.296 57.428 1.432C57.2947 1.56533 57.1893 1.72267 57.112 1.904C57.0373 2.08533 57 2.28 57 2.488C57 2.69867 57.0373 2.89467 57.112 3.076C57.1893 3.25467 57.2947 3.41067 57.428 3.544C57.5613 3.67733 57.7187 3.78267 57.9 3.86C58.0813 3.93467 58.2773 3.972 58.488 3.972C58.6987 3.972 58.8947 3.93467 59.076 3.86C59.2573 3.78267 59.4147 3.67733 59.548 3.544C59.6813 3.41067 59.7853 3.25467 59.86 3.076C59.9373 2.89467 59.976 2.69867 59.976 2.488C59.976 2.28 59.9373 2.08533 59.86 1.904C59.7853 1.72267 59.6813 1.56533 59.548 1.432C59.4147 1.296 59.2573 1.19067 59.076 1.116C58.8947 1.03867 58.6987 1 58.488 1Z" fill="black"/>
<path d="M110.064 10.004H114.208C114.973 10.004 115.636 10.1347 116.196 10.396C116.756 10.6573 117.213 11.0167 117.568 11.474C117.923 11.922 118.184 12.4493 118.352 13.056C118.529 13.6627 118.618 14.3113 118.618 15.002C118.618 15.6927 118.529 16.3413 118.352 16.948C118.184 17.5547 117.923 18.0867 117.568 18.544C117.213 18.992 116.756 19.3467 116.196 19.608C115.636 19.8693 114.973 20 114.208 20H110.064V10.004ZM111.814 18.572H113.536C114.217 18.572 114.773 18.4833 115.202 18.306C115.641 18.1193 115.981 17.8673 116.224 17.55C116.476 17.2233 116.644 16.8453 116.728 16.416C116.821 15.9773 116.868 15.506 116.868 15.002C116.868 14.498 116.821 14.0313 116.728 13.602C116.644 13.1633 116.476 12.7853 116.224 12.468C115.981 12.1413 115.641 11.8893 115.202 11.712C114.773 11.5253 114.217 11.432 113.536 11.432H111.814V18.572ZM124.634 15.744C124.615 15.492 124.559 15.2493 124.466 15.016C124.382 14.7827 124.26 14.582 124.102 14.414C123.952 14.2367 123.766 14.0967 123.542 13.994C123.327 13.882 123.084 13.826 122.814 13.826C122.534 13.826 122.277 13.8773 122.044 13.98C121.82 14.0733 121.624 14.2087 121.456 14.386C121.297 14.554 121.166 14.7547 121.064 14.988C120.97 15.2213 120.919 15.4733 120.91 15.744H124.634ZM120.91 16.794C120.91 17.074 120.947 17.3447 121.022 17.606C121.106 17.8673 121.227 18.096 121.386 18.292C121.544 18.488 121.745 18.6467 121.988 18.768C122.23 18.88 122.52 18.936 122.856 18.936C123.322 18.936 123.696 18.838 123.976 18.642C124.265 18.4367 124.48 18.1333 124.62 17.732H126.132C126.048 18.124 125.903 18.474 125.698 18.782C125.492 19.09 125.245 19.3513 124.956 19.566C124.666 19.7713 124.34 19.9253 123.976 20.028C123.621 20.14 123.248 20.196 122.856 20.196C122.286 20.196 121.782 20.1027 121.344 19.916C120.905 19.7293 120.532 19.468 120.224 19.132C119.925 18.796 119.696 18.3947 119.538 17.928C119.388 17.4613 119.314 16.948 119.314 16.388C119.314 15.8747 119.393 15.3893 119.552 14.932C119.72 14.4653 119.953 14.0593 120.252 13.714C120.56 13.3593 120.928 13.0793 121.358 12.874C121.787 12.6687 122.272 12.566 122.814 12.566C123.383 12.566 123.892 12.6873 124.34 12.93C124.797 13.1633 125.175 13.476 125.474 13.868C125.772 14.26 125.987 14.7127 126.118 15.226C126.258 15.73 126.295 16.2527 126.23 16.794H120.91ZM127.163 12.762H128.675V13.826L128.703 13.854C128.945 13.4527 129.263 13.14 129.655 12.916C130.047 12.6827 130.481 12.566 130.957 12.566C131.75 12.566 132.375 12.7713 132.833 13.182C133.29 13.5927 133.519 14.2087 133.519 15.03V20H131.923V15.45C131.904 14.8807 131.783 14.47 131.559 14.218C131.335 13.9567 130.985 13.826 130.509 13.826C130.238 13.826 129.995 13.8773 129.781 13.98C129.566 14.0733 129.384 14.2087 129.235 14.386C129.085 14.554 128.969 14.7547 128.885 14.988C128.801 15.2213 128.759 15.4687 128.759 15.73V20H127.163V12.762ZM134.964 10.004H136.56V11.516H134.964V10.004ZM134.964 12.762H136.56V20H134.964V12.762ZM139.223 17.676C139.269 18.1427 139.447 18.4693 139.755 18.656C140.063 18.8427 140.431 18.936 140.861 18.936C141.01 18.936 141.178 18.9267 141.365 18.908C141.561 18.88 141.743 18.8333 141.911 18.768C142.079 18.7027 142.214 18.6093 142.317 18.488C142.429 18.3573 142.48 18.1893 142.471 17.984C142.461 17.7787 142.387 17.6107 142.247 17.48C142.107 17.3493 141.925 17.2467 141.701 17.172C141.486 17.088 141.239 17.018 140.959 16.962C140.679 16.906 140.394 16.8453 140.105 16.78C139.806 16.7147 139.517 16.6353 139.237 16.542C138.966 16.4487 138.719 16.3227 138.495 16.164C138.28 16.0053 138.107 15.8047 137.977 15.562C137.846 15.31 137.781 15.002 137.781 14.638C137.781 14.246 137.874 13.9193 138.061 13.658C138.257 13.3873 138.499 13.1727 138.789 13.014C139.087 12.846 139.414 12.7293 139.769 12.664C140.133 12.5987 140.478 12.566 140.805 12.566C141.178 12.566 141.533 12.608 141.869 12.692C142.214 12.7667 142.522 12.8927 142.793 13.07C143.073 13.2473 143.301 13.4807 143.479 13.77C143.665 14.05 143.782 14.3907 143.829 14.792H142.163C142.088 14.4093 141.911 14.1527 141.631 14.022C141.36 13.8913 141.047 13.826 140.693 13.826C140.581 13.826 140.445 13.8353 140.287 13.854C140.137 13.8727 139.993 13.91 139.853 13.966C139.722 14.0127 139.61 14.0873 139.517 14.19C139.423 14.2833 139.377 14.4093 139.377 14.568C139.377 14.764 139.442 14.9227 139.573 15.044C139.713 15.1653 139.89 15.268 140.105 15.352C140.329 15.4267 140.581 15.492 140.861 15.548C141.141 15.604 141.43 15.6647 141.729 15.73C142.018 15.7953 142.303 15.8747 142.583 15.968C142.863 16.0613 143.11 16.1873 143.325 16.346C143.549 16.5047 143.726 16.7053 143.857 16.948C143.997 17.1907 144.067 17.4893 144.067 17.844C144.067 18.2733 143.969 18.6373 143.773 18.936C143.577 19.2347 143.32 19.4773 143.003 19.664C142.695 19.8507 142.349 19.986 141.967 20.07C141.584 20.154 141.206 20.196 140.833 20.196C140.375 20.196 139.951 20.1447 139.559 20.042C139.176 19.9393 138.84 19.7853 138.551 19.58C138.271 19.3653 138.047 19.104 137.879 18.796C137.72 18.4787 137.636 18.1053 137.627 17.676H139.223ZM149.987 16.668C149.987 17.0507 150.052 17.3773 150.183 17.648C150.314 17.9187 150.496 18.1427 150.729 18.32C150.962 18.488 151.228 18.614 151.527 18.698C151.835 18.7727 152.166 18.81 152.521 18.81C152.904 18.81 153.23 18.768 153.501 18.684C153.772 18.5907 153.991 18.474 154.159 18.334C154.327 18.194 154.448 18.0353 154.523 17.858C154.598 17.6713 154.635 17.4847 154.635 17.298C154.635 16.9153 154.546 16.6353 154.369 16.458C154.201 16.2713 154.014 16.1407 153.809 16.066C153.454 15.9353 153.039 15.814 152.563 15.702C152.096 15.5807 151.518 15.4267 150.827 15.24C150.398 15.128 150.038 14.9833 149.749 14.806C149.469 14.6193 149.245 14.414 149.077 14.19C148.909 13.966 148.788 13.728 148.713 13.476C148.648 13.224 148.615 12.9673 148.615 12.706C148.615 12.202 148.718 11.768 148.923 11.404C149.138 11.0307 149.418 10.7227 149.763 10.48C150.108 10.2373 150.5 10.06 150.939 9.948C151.378 9.82667 151.821 9.766 152.269 9.766C152.792 9.766 153.282 9.836 153.739 9.976C154.206 10.1067 154.612 10.3073 154.957 10.578C155.312 10.8487 155.592 11.1847 155.797 11.586C156.002 11.978 156.105 12.4353 156.105 12.958H154.355C154.308 12.314 154.089 11.8613 153.697 11.6C153.305 11.3293 152.806 11.194 152.199 11.194C151.994 11.194 151.784 11.2173 151.569 11.264C151.354 11.3013 151.158 11.3713 150.981 11.474C150.804 11.5673 150.654 11.698 150.533 11.866C150.421 12.034 150.365 12.244 150.365 12.496C150.365 12.8507 150.472 13.1307 150.687 13.336C150.911 13.532 151.2 13.6813 151.555 13.784C151.592 13.7933 151.737 13.8353 151.989 13.91C152.25 13.9753 152.54 14.05 152.857 14.134C153.174 14.218 153.482 14.302 153.781 14.386C154.089 14.4607 154.308 14.5167 154.439 14.554C154.766 14.6567 155.05 14.7967 155.293 14.974C155.536 15.1513 155.736 15.3567 155.895 15.59C156.063 15.814 156.184 16.0567 156.259 16.318C156.343 16.5793 156.385 16.8407 156.385 17.102C156.385 17.662 156.268 18.1427 156.035 18.544C155.811 18.936 155.512 19.258 155.139 19.51C154.766 19.762 154.341 19.944 153.865 20.056C153.389 20.1773 152.904 20.238 152.409 20.238C151.84 20.238 151.303 20.168 150.799 20.028C150.295 19.888 149.856 19.6733 149.483 19.384C149.11 19.0947 148.811 18.726 148.587 18.278C148.363 17.8207 148.246 17.284 148.237 16.668H149.987ZM160.731 20.196C160.153 20.196 159.635 20.1027 159.177 19.916C158.729 19.72 158.347 19.454 158.029 19.118C157.721 18.782 157.483 18.3807 157.315 17.914C157.157 17.4473 157.077 16.934 157.077 16.374C157.077 15.8233 157.157 15.3147 157.315 14.848C157.483 14.3813 157.721 13.98 158.029 13.644C158.347 13.308 158.729 13.0467 159.177 12.86C159.635 12.664 160.153 12.566 160.731 12.566C161.31 12.566 161.823 12.664 162.271 12.86C162.729 13.0467 163.111 13.308 163.419 13.644C163.737 13.98 163.975 14.3813 164.133 14.848C164.301 15.3147 164.385 15.8233 164.385 16.374C164.385 16.934 164.301 17.4473 164.133 17.914C163.975 18.3807 163.737 18.782 163.419 19.118C163.111 19.454 162.729 19.72 162.271 19.916C161.823 20.1027 161.31 20.196 160.731 20.196ZM160.731 18.936C161.086 18.936 161.394 18.8613 161.655 18.712C161.917 18.5627 162.131 18.3667 162.299 18.124C162.467 17.8813 162.589 17.6107 162.663 17.312C162.747 17.004 162.789 16.6913 162.789 16.374C162.789 16.066 162.747 15.758 162.663 15.45C162.589 15.142 162.467 14.8713 162.299 14.638C162.131 14.3953 161.917 14.1993 161.655 14.05C161.394 13.9007 161.086 13.826 160.731 13.826C160.377 13.826 160.069 13.9007 159.807 14.05C159.546 14.1993 159.331 14.3953 159.163 14.638C158.995 14.8713 158.869 15.142 158.785 15.45C158.711 15.758 158.673 16.066 158.673 16.374C158.673 16.6913 158.711 17.004 158.785 17.312C158.869 17.6107 158.995 17.8813 159.163 18.124C159.331 18.3667 159.546 18.5627 159.807 18.712C160.069 18.8613 160.377 18.936 160.731 18.936ZM165.474 10.004H167.07V20H165.474V10.004ZM171.847 20.196C171.268 20.196 170.75 20.1027 170.293 19.916C169.845 19.72 169.462 19.454 169.145 19.118C168.837 18.782 168.599 18.3807 168.431 17.914C168.272 17.4473 168.193 16.934 168.193 16.374C168.193 15.8233 168.272 15.3147 168.431 14.848C168.599 14.3813 168.837 13.98 169.145 13.644C169.462 13.308 169.845 13.0467 170.293 12.86C170.75 12.664 171.268 12.566 171.847 12.566C172.426 12.566 172.939 12.664 173.387 12.86C173.844 13.0467 174.227 13.308 174.535 13.644C174.852 13.98 175.09 14.3813 175.249 14.848C175.417 15.3147 175.501 15.8233 175.501 16.374C175.501 16.934 175.417 17.4473 175.249 17.914C175.09 18.3807 174.852 18.782 174.535 19.118C174.227 19.454 173.844 19.72 173.387 19.916C172.939 20.1027 172.426 20.196 171.847 20.196ZM171.847 18.936C172.202 18.936 172.51 18.8613 172.771 18.712C173.032 18.5627 173.247 18.3667 173.415 18.124C173.583 17.8813 173.704 17.6107 173.779 17.312C173.863 17.004 173.905 16.6913 173.905 16.374C173.905 16.066 173.863 15.758 173.779 15.45C173.704 15.142 173.583 14.8713 173.415 14.638C173.247 14.3953 173.032 14.1993 172.771 14.05C172.51 13.9007 172.202 13.826 171.847 13.826C171.492 13.826 171.184 13.9007 170.923 14.05C170.662 14.1993 170.447 14.3953 170.279 14.638C170.111 14.8713 169.985 15.142 169.901 15.45C169.826 15.758 169.789 16.066 169.789 16.374C169.789 16.6913 169.826 17.004 169.901 17.312C169.985 17.6107 170.111 17.8813 170.279 18.124C170.447 18.3667 170.662 18.5627 170.923 18.712C171.184 18.8613 171.492 18.936 171.847 18.936ZM175.834 12.762H177.57L179.404 18.32H179.432L181.196 12.762H182.848L180.258 20H178.466L175.834 12.762ZM188.498 15.744C188.479 15.492 188.423 15.2493 188.33 15.016C188.246 14.7827 188.124 14.582 187.966 14.414C187.816 14.2367 187.63 14.0967 187.406 13.994C187.191 13.882 186.948 13.826 186.678 13.826C186.398 13.826 186.141 13.8773 185.908 13.98C185.684 14.0733 185.488 14.2087 185.32 14.386C185.161 14.554 185.03 14.7547 184.928 14.988C184.834 15.2213 184.783 15.4733 184.774 15.744H188.498ZM184.774 16.794C184.774 17.074 184.811 17.3447 184.886 17.606C184.97 17.8673 185.091 18.096 185.25 18.292C185.408 18.488 185.609 18.6467 185.852 18.768C186.094 18.88 186.384 18.936 186.72 18.936C187.186 18.936 187.56 18.838 187.84 18.642C188.129 18.4367 188.344 18.1333 188.484 17.732H189.996C189.912 18.124 189.767 18.474 189.562 18.782C189.356 19.09 189.109 19.3513 188.82 19.566C188.53 19.7713 188.204 19.9253 187.84 20.028C187.485 20.14 187.112 20.196 186.72 20.196C186.15 20.196 185.646 20.1027 185.208 19.916C184.769 19.7293 184.396 19.468 184.088 19.132C183.789 18.796 183.56 18.3947 183.402 17.928C183.252 17.4613 183.178 16.948 183.178 16.388C183.178 15.8747 183.257 15.3893 183.416 14.932C183.584 14.4653 183.817 14.0593 184.116 13.714C184.424 13.3593 184.792 13.0793 185.222 12.874C185.651 12.6687 186.136 12.566 186.678 12.566C187.247 12.566 187.756 12.6873 188.204 12.93C188.661 13.1633 189.039 13.476 189.338 13.868C189.636 14.26 189.851 14.7127 189.982 15.226C190.122 15.73 190.159 16.2527 190.094 16.794H184.774ZM190.313 12.762H192.049L193.883 18.32H193.911L195.675 12.762H197.327L194.737 20H192.945L190.313 12.762ZM207.181 18.88C206.808 19.3373 206.392 19.6733 205.935 19.888C205.487 20.0933 204.969 20.196 204.381 20.196C203.924 20.196 203.499 20.1307 203.107 20C202.724 19.86 202.393 19.664 202.113 19.412C201.833 19.16 201.614 18.852 201.455 18.488C201.306 18.1147 201.231 17.6947 201.231 17.228C201.231 16.8733 201.296 16.5513 201.427 16.262C201.558 15.9727 201.73 15.7113 201.945 15.478C202.16 15.2353 202.402 15.0207 202.673 14.834C202.953 14.6473 203.238 14.4793 203.527 14.33C203.396 14.162 203.27 13.9987 203.149 13.84C203.028 13.672 202.92 13.4993 202.827 13.322C202.734 13.1447 202.659 12.958 202.603 12.762C202.547 12.566 202.519 12.3607 202.519 12.146C202.519 11.782 202.58 11.4553 202.701 11.166C202.832 10.8767 203.009 10.6293 203.233 10.424C203.457 10.2093 203.718 10.046 204.017 9.934C204.316 9.822 204.633 9.766 204.969 9.766C205.286 9.766 205.594 9.81733 205.893 9.92C206.201 10.0133 206.467 10.1627 206.691 10.368C206.924 10.564 207.111 10.8113 207.251 11.11C207.391 11.4087 207.461 11.7587 207.461 12.16C207.461 12.4587 207.41 12.734 207.307 12.986C207.214 13.238 207.083 13.4713 206.915 13.686C206.756 13.8913 206.565 14.078 206.341 14.246C206.126 14.414 205.898 14.5633 205.655 14.694L207.209 16.57C207.265 16.4113 207.321 16.2293 207.377 16.024C207.433 15.8187 207.48 15.5527 207.517 15.226H208.917C208.87 15.6647 208.782 16.094 208.651 16.514C208.53 16.934 208.357 17.3213 208.133 17.676L210.051 20H208.091L207.181 18.88ZM204.367 15.38C204.218 15.4733 204.054 15.5667 203.877 15.66C203.7 15.7533 203.532 15.87 203.373 16.01C203.224 16.15 203.093 16.318 202.981 16.514C202.878 16.71 202.827 16.9573 202.827 17.256C202.827 17.7973 202.976 18.2127 203.275 18.502C203.583 18.7913 203.97 18.936 204.437 18.936C204.726 18.936 204.974 18.8987 205.179 18.824C205.384 18.74 205.557 18.642 205.697 18.53C205.846 18.418 205.968 18.2967 206.061 18.166C206.164 18.0353 206.252 17.9187 206.327 17.816L204.367 15.38ZM205.011 10.956C204.712 10.956 204.46 11.0587 204.255 11.264C204.05 11.46 203.947 11.726 203.947 12.062C203.947 12.23 203.975 12.3887 204.031 12.538C204.096 12.678 204.171 12.818 204.255 12.958C204.348 13.0887 204.446 13.2193 204.549 13.35C204.661 13.4807 204.764 13.6067 204.857 13.728C205.006 13.6253 205.151 13.5227 205.291 13.42C205.431 13.308 205.557 13.1913 205.669 13.07C205.781 12.9393 205.87 12.7947 205.935 12.636C206 12.4773 206.033 12.3 206.033 12.104C206.033 11.7773 205.94 11.5067 205.753 11.292C205.566 11.068 205.319 10.956 205.011 10.956ZM221.01 13.182C220.935 12.8927 220.832 12.6267 220.702 12.384C220.571 12.1413 220.403 11.9313 220.198 11.754C219.992 11.5767 219.75 11.4413 219.47 11.348C219.199 11.2453 218.882 11.194 218.518 11.194C217.986 11.194 217.524 11.3013 217.132 11.516C216.749 11.7307 216.436 12.02 216.194 12.384C215.951 12.7387 215.769 13.1447 215.648 13.602C215.536 14.0593 215.48 14.526 215.48 15.002C215.48 15.478 215.536 15.9447 215.648 16.402C215.769 16.8593 215.951 17.27 216.194 17.634C216.436 17.9887 216.749 18.2733 217.132 18.488C217.524 18.7027 217.986 18.81 218.518 18.81C218.91 18.81 219.255 18.7447 219.554 18.614C219.852 18.474 220.109 18.2873 220.324 18.054C220.538 17.8113 220.706 17.5313 220.828 17.214C220.949 16.8967 221.028 16.556 221.066 16.192H222.774C222.736 16.7893 222.606 17.3353 222.382 17.83C222.167 18.3247 221.873 18.754 221.5 19.118C221.126 19.4727 220.688 19.748 220.184 19.944C219.68 20.14 219.124 20.238 218.518 20.238C217.771 20.238 217.099 20.1027 216.502 19.832C215.914 19.552 215.414 19.174 215.004 18.698C214.593 18.222 214.276 17.6667 214.052 17.032C213.837 16.3973 213.73 15.7207 213.73 15.002C213.73 14.2927 213.837 13.6207 214.052 12.986C214.276 12.3513 214.593 11.796 215.004 11.32C215.414 10.844 215.914 10.466 216.502 10.186C217.099 9.906 217.771 9.766 218.518 9.766C219.078 9.766 219.605 9.84533 220.1 10.004C220.594 10.1533 221.028 10.3773 221.402 10.676C221.784 10.9653 222.092 11.32 222.326 11.74C222.559 12.16 222.704 12.6407 222.76 13.182H221.01ZM227.179 20.196C226.601 20.196 226.083 20.1027 225.625 19.916C225.177 19.72 224.795 19.454 224.477 19.118C224.169 18.782 223.931 18.3807 223.763 17.914C223.605 17.4473 223.525 16.934 223.525 16.374C223.525 15.8233 223.605 15.3147 223.763 14.848C223.931 14.3813 224.169 13.98 224.477 13.644C224.795 13.308 225.177 13.0467 225.625 12.86C226.083 12.664 226.601 12.566 227.179 12.566C227.758 12.566 228.271 12.664 228.719 12.86C229.177 13.0467 229.559 13.308 229.867 13.644C230.185 13.98 230.423 14.3813 230.581 14.848C230.749 15.3147 230.833 15.8233 230.833 16.374C230.833 16.934 230.749 17.4473 230.581 17.914C230.423 18.3807 230.185 18.782 229.867 19.118C229.559 19.454 229.177 19.72 228.719 19.916C228.271 20.1027 227.758 20.196 227.179 20.196ZM227.179 18.936C227.534 18.936 227.842 18.8613 228.103 18.712C228.365 18.5627 228.579 18.3667 228.747 18.124C228.915 17.8813 229.037 17.6107 229.111 17.312C229.195 17.004 229.237 16.6913 229.237 16.374C229.237 16.066 229.195 15.758 229.111 15.45C229.037 15.142 228.915 14.8713 228.747 14.638C228.579 14.3953 228.365 14.1993 228.103 14.05C227.842 13.9007 227.534 13.826 227.179 13.826C226.825 13.826 226.517 13.9007 226.255 14.05C225.994 14.1993 225.779 14.3953 225.611 14.638C225.443 14.8713 225.317 15.142 225.233 15.45C225.159 15.758 225.121 16.066 225.121 16.374C225.121 16.6913 225.159 17.004 225.233 17.312C225.317 17.6107 225.443 17.8813 225.611 18.124C225.779 18.3667 225.994 18.5627 226.255 18.712C226.517 18.8613 226.825 18.936 227.179 18.936Z" fill="black"/>
<path d="M62 0.50491V29.4951H73.319C81.6196 29.4951 86.4407 23.2679 86.4407 15.0631C86.4407 6.81627 81.6196 0.50491 73.319 0.50491H62ZM67.8272 24.3198V5.68022H73.319C78.1401 5.68022 80.6135 10.0982 80.6135 15.0631C80.6135 20.0281 78.1401 24.3198 73.319 24.3198H67.8272Z" fill="black"/>
<path d="M89.6452 30C95.0951 30 100 26.8443 100 21.0799C100 16.1571 96.1851 13.9271 91.8252 12.6227L88.5971 11.6971C85.5787 10.8135 85.3691 9.34081 85.3691 8.62553C85.3691 6.69004 87.0879 5.17532 89.3517 5.17532C91.8671 5.17532 93.2924 6.7742 93.2924 8.83591H99.1196C99.1196 3.32398 94.9274 0 89.4775 0C83.9438 0 79.5 3.57644 79.5 8.75175C80.1109 11.25 80.6319 15.1893 86.9622 16.8724L90.4836 17.8822C92.9571 18.6396 94.1309 19.7756 94.1309 21.3745C94.1309 23.4362 92.4121 24.8668 89.8129 24.8668C87.1299 24.8668 85.1176 23.1417 85.0757 21.0799H79.2485C79.2485 26.1711 83.4826 30 89.6452 30Z" fill="black"/>
</svg>
