<svg width="36" height="36" viewBox="0 0 36 36" fill="none" xmlns="http://www.w3.org/2000/svg">
<g clip-path="url(#clip0_398:130)">
<path d="M27.5446 6.42056C27.1256 6.41854 26.7154 6.54096 26.366 6.77229C26.0166 7.00362 25.7438 7.33346 25.582 7.72001C25.4203 8.10655 25.3769 8.53242 25.4574 8.94364C25.5379 9.35486 25.7387 9.73292 26.0343 10.0299C26.3299 10.3269 26.7069 10.5295 27.1178 10.612C27.5286 10.6945 27.9546 10.6532 28.342 10.4933C28.7293 10.3334 29.0605 10.0622 29.2935 9.71389C29.5265 9.36563 29.6509 8.95603 29.6509 8.53701C29.6522 8.25955 29.5987 7.98457 29.4935 7.72785C29.3882 7.47113 29.2333 7.23773 29.0376 7.04106C28.8419 6.8444 28.6092 6.68834 28.353 6.58186C28.0968 6.47537 27.8221 6.42055 27.5446 6.42056Z" fill="black"/>
<path d="M18.1525 9.1374C16.3968 9.13538 14.6799 9.65432 13.2192 10.6285C11.7585 11.6027 10.6197 12.9883 9.94687 14.61C9.27404 16.2317 9.0975 18.0166 9.43953 19.7387C9.78157 21.4608 10.6268 23.0427 11.8683 24.2842C13.1098 25.5257 14.6917 26.371 16.4138 26.713C18.1359 27.0551 19.9208 26.8785 21.5425 26.2057C23.1642 25.5328 24.5499 24.394 25.524 22.9333C26.4982 21.4726 27.0171 19.7558 27.0151 18C27.0097 15.6512 26.0743 13.4 24.4134 11.7391C22.7525 10.0782 20.5014 9.14277 18.1525 9.1374ZM18.1525 23.688C17.0271 23.69 15.9264 23.3581 14.9896 22.7343C14.0529 22.1106 13.3223 21.2229 12.8903 20.1838C12.4582 19.1446 12.3441 18.0006 12.5624 16.8966C12.7807 15.7926 13.3216 14.7781 14.1167 13.9816C14.9118 13.1851 15.9253 12.6424 17.0289 12.4221C18.1326 12.2018 19.2768 12.3139 20.3167 12.7441C21.3566 13.1743 22.2455 13.9033 22.871 14.8389C23.4964 15.7745 23.8303 16.8746 23.8303 18C23.8343 18.7487 23.6905 19.4908 23.4071 20.1837C23.1237 20.8767 22.7063 21.5069 22.1788 22.0382C21.6513 22.5694 21.0241 22.9914 20.3331 23.2797C19.6422 23.5681 18.9012 23.7172 18.1525 23.7185V23.688Z" fill="black"/>
<path d="M25.1939 36.0102H10.8163C7.94846 36.0075 5.19887 34.867 3.17101 32.8392C1.14314 30.8113 0.00269406 28.0617 0 25.1939V10.8163C0.00269406 7.94846 1.14314 5.19885 3.17101 3.17099C5.19887 1.14313 7.94846 0.00269406 10.8163 0H25.1939C28.06 0.00538609 30.8069 1.14701 32.8326 3.17458C34.8583 5.20215 35.9973 7.95022 36 10.8163V25.1939C35.9973 28.06 34.8583 30.808 32.8326 32.8356C30.8069 34.8632 28.06 36.0048 25.1939 36.0102ZM10.8163 3.368C8.8471 3.37069 6.95937 4.15414 5.56694 5.54656C4.17452 6.93898 3.39106 8.82675 3.38837 10.7959V25.1735C3.39106 27.1427 4.17452 29.0305 5.56694 30.4229C6.95937 31.8153 8.8471 32.5988 10.8163 32.6015H25.1939C27.1623 32.5961 29.0485 31.8118 30.4403 30.4199C31.8322 29.0281 32.6164 27.1419 32.6218 25.1735V10.8163C32.6164 8.84793 31.8322 6.96172 30.4403 5.56988C29.0485 4.17804 27.1623 3.39373 25.1939 3.38836L10.8163 3.368Z" fill="black"/>
</g>
<defs>
<clipPath id="clip0_398:130">
<rect width="36" height="36" fill="white"/>
</clipPath>
</defs>
</svg>
