<svg width="612" height="664" viewBox="0 0 612 664" fill="none" xmlns="http://www.w3.org/2000/svg">
<path d="M509.889 21.2927C554.139 53.1527 569.184 129.263 581.574 192.983C594.849 256.703 606.354 307.148 609.894 360.248C613.434 414.233 609.894 469.103 590.424 521.318C570.069 572.648 534.669 621.323 486.879 644.333C438.204 666.458 378.909 663.803 319.614 662.033C261.204 660.263 202.794 659.378 159.429 634.598C115.179 609.818 85.974 560.258 63.849 509.813C42.609 459.368 29.334 408.923 16.059 350.513C2.78398 292.988 -10.491 226.613 12.519 179.708C36.414 131.918 95.709 103.598 152.349 77.9326C208.989 53.1526 263.859 31.9126 328.464 15.9826C392.184 -0.832367 465.639 -11.4524 509.889 21.2927Z" fill="#E68E38" fill-opacity="0.07"/>
</svg>
