<svg width="47" height="47" viewBox="0 0 47 47" fill="none" xmlns="http://www.w3.org/2000/svg">
<path fill-rule="evenodd" clip-rule="evenodd" d="M23.5 46C35.9264 46 46 35.9264 46 23.5C46 11.0736 35.9264 1 23.5 1C11.0736 1 1 11.0736 1 23.5C1 35.9264 11.0736 46 23.5 46ZM23.5 47C36.4787 47 47 36.4787 47 23.5C47 10.5213 36.4787 0 23.5 0C10.5213 0 0 10.5213 0 23.5C0 36.4787 10.5213 47 23.5 47Z" fill="#E68E38"/>
<path fill-rule="evenodd" clip-rule="evenodd" d="M13.205 23.205C13.0737 23.3363 13 23.5143 13 23.7C13 23.8857 13.0737 24.0637 13.205 24.195C13.3363 24.3263 13.5143 24.4 13.7 24.4H34.1C34.2857 24.4 34.4637 24.3263 34.595 24.195C34.7263 24.0637 34.8 23.8857 34.8 23.7C34.8 23.5143 34.7263 23.3363 34.595 23.205C34.4637 23.0738 34.2857 23 34.1 23H13.7C13.5143 23 13.3363 23.0737 13.205 23.205ZM12.4979 22.4979C12.1791 22.8167 12 23.2491 12 23.7C12 24.1509 12.1791 24.5833 12.4979 24.9021C12.8167 25.2209 13.2491 25.4 13.7 25.4H34.1C34.5509 25.4 34.9833 25.2209 35.3021 24.9021C35.6209 24.5833 35.8 24.1509 35.8 23.7C35.8 23.2491 35.6209 22.8167 35.3021 22.4979C34.9833 22.1791 34.5509 22 34.1 22H13.7C13.2491 22 12.8167 22.1791 12.4979 22.4979Z" fill="#E68E38"/>
</svg>
