<svg width="133" height="51" viewBox="0 0 133 51" fill="none" xmlns="http://www.w3.org/2000/svg">
<path d="M49.6074 25.5635C49.6074 26.4795 49.4479 27.2839 49.1289 27.9766C48.8145 28.6693 48.3633 29.2025 47.7754 29.5762C47.1875 29.9499 46.5085 30.1367 45.7383 30.1367C44.5762 30.1367 43.6374 29.722 42.9219 28.8926C42.2064 28.0586 41.8486 26.9352 41.8486 25.5225V24.4971C41.8486 23.5902 42.0081 22.7881 42.3271 22.0908C42.6507 21.389 43.1064 20.8512 43.6943 20.4775C44.2822 20.0993 44.959 19.9102 45.7246 19.9102C46.4902 19.9102 47.1647 20.0947 47.748 20.4639C48.3359 20.833 48.7894 21.3548 49.1084 22.0293C49.4274 22.7038 49.5938 23.4854 49.6074 24.374V25.5635ZM48.7666 24.4834C48.7666 23.2848 48.4954 22.346 47.9531 21.667C47.4108 20.988 46.668 20.6484 45.7246 20.6484C44.7995 20.6484 44.0612 20.9902 43.5098 21.6738C42.9629 22.3529 42.6895 23.3031 42.6895 24.5244V25.5635C42.6895 26.7438 42.9629 27.6803 43.5098 28.373C44.0566 29.0612 44.7995 29.4053 45.7383 29.4053C46.6908 29.4053 47.4336 29.0658 47.9668 28.3867C48.5 27.7031 48.7666 26.7529 48.7666 25.5361V24.4834ZM54.9531 23.3008C54.7799 23.2689 54.5954 23.2529 54.3994 23.2529C53.889 23.2529 53.4561 23.3965 53.1006 23.6836C52.7497 23.9661 52.499 24.3786 52.3486 24.9209V30H51.5352V22.6035H52.335L52.3486 23.7793C52.7816 22.9043 53.4766 22.4668 54.4336 22.4668C54.6615 22.4668 54.8415 22.4964 54.9736 22.5557L54.9531 23.3008ZM60.6475 30C60.5654 29.7676 60.513 29.4235 60.4902 28.9678C60.2031 29.3415 59.8363 29.6309 59.3896 29.8359C58.9476 30.0365 58.4782 30.1367 57.9814 30.1367C57.2705 30.1367 56.694 29.9385 56.252 29.542C55.8145 29.1455 55.5957 28.6442 55.5957 28.0381C55.5957 27.318 55.8942 26.7484 56.4912 26.3291C57.0928 25.9098 57.929 25.7002 59 25.7002H60.4834V24.8594C60.4834 24.3307 60.3193 23.916 59.9912 23.6152C59.6676 23.3099 59.1937 23.1572 58.5693 23.1572C57.9997 23.1572 57.528 23.3031 57.1543 23.5947C56.7806 23.8864 56.5938 24.2373 56.5938 24.6475L55.7734 24.6406C55.7734 24.0527 56.0469 23.5446 56.5938 23.1162C57.1406 22.6833 57.8128 22.4668 58.6104 22.4668C59.4352 22.4668 60.0846 22.6742 60.5586 23.0889C61.0371 23.499 61.2832 24.0732 61.2969 24.8115V28.3115C61.2969 29.027 61.3721 29.5625 61.5225 29.918V30H60.6475ZM58.0771 29.4121C58.624 29.4121 59.1117 29.2799 59.54 29.0156C59.973 28.7513 60.2874 28.3981 60.4834 27.9561V26.3291H59.0205C58.2048 26.3382 57.5667 26.4886 57.1064 26.7803C56.6462 27.0674 56.416 27.4639 56.416 27.9697C56.416 28.3844 56.5687 28.7285 56.874 29.002C57.1839 29.2754 57.585 29.4121 58.0771 29.4121ZM64.2637 22.6035L64.291 23.8682C64.569 23.4124 64.9154 23.0661 65.3301 22.8291C65.7448 22.5876 66.2028 22.4668 66.7041 22.4668C67.4971 22.4668 68.0872 22.6901 68.4746 23.1367C68.862 23.5833 69.0579 24.2533 69.0625 25.1465V30H68.249V25.1396C68.2445 24.4788 68.1032 23.9867 67.8252 23.6631C67.5518 23.3395 67.112 23.1777 66.5059 23.1777C66 23.1777 65.5511 23.3372 65.1592 23.6562C64.7718 23.9707 64.4847 24.3968 64.2979 24.9346V30H63.4844V22.6035H64.2637ZM70.8535 26.2334C70.8535 25.0758 71.1087 24.1598 71.6191 23.4854C72.1341 22.8063 72.8314 22.4668 73.7109 22.4668C74.7181 22.4668 75.4837 22.8678 76.0078 23.6699L76.0488 22.6035H76.8145V29.8496C76.8145 30.8021 76.5479 31.5563 76.0146 32.1123C75.4814 32.6683 74.7591 32.9463 73.8477 32.9463C73.3327 32.9463 72.8405 32.8301 72.3711 32.5977C71.9062 32.3698 71.5394 32.0645 71.2705 31.6816L71.7285 31.1895C72.3073 31.9004 72.9954 32.2559 73.793 32.2559C74.4766 32.2559 75.0098 32.0531 75.3926 31.6475C75.7754 31.2464 75.9736 30.6882 75.9873 29.9727V29.043C75.4632 29.7721 74.6999 30.1367 73.6973 30.1367C72.8405 30.1367 72.1523 29.7949 71.6328 29.1113C71.1133 28.4277 70.8535 27.5049 70.8535 26.3428V26.2334ZM71.6807 26.377C71.6807 27.3203 71.8698 28.0654 72.248 28.6123C72.6263 29.1546 73.1595 29.4258 73.8477 29.4258C74.8548 29.4258 75.568 28.9746 75.9873 28.0723V24.6338C75.7959 24.1598 75.5202 23.7998 75.1602 23.5537C74.8001 23.3031 74.3672 23.1777 73.8613 23.1777C73.1732 23.1777 72.6377 23.4489 72.2549 23.9912C71.8721 24.529 71.6807 25.3242 71.6807 26.377ZM81.8115 30.1367C81.1826 30.1367 80.613 29.9818 80.1025 29.6719C79.5967 29.362 79.2025 28.9313 78.9199 28.3799C78.6374 27.8239 78.4961 27.2018 78.4961 26.5137V26.2197C78.4961 25.5088 78.6328 24.8685 78.9062 24.2988C79.1842 23.7292 79.5693 23.2826 80.0615 22.959C80.5537 22.6309 81.0869 22.4668 81.6611 22.4668C82.5589 22.4668 83.2699 22.7744 83.7939 23.3896C84.3226 24.0003 84.5869 24.8366 84.5869 25.8984V26.3564H79.3096V26.5137C79.3096 27.3522 79.5488 28.0518 80.0273 28.6123C80.5104 29.1683 81.1165 29.4463 81.8457 29.4463C82.2832 29.4463 82.6683 29.3665 83.001 29.207C83.3382 29.0475 83.6436 28.7923 83.917 28.4414L84.4297 28.8311C83.8281 29.7015 82.9554 30.1367 81.8115 30.1367ZM81.6611 23.1641C81.0459 23.1641 80.5264 23.3896 80.1025 23.8408C79.6833 24.292 79.4281 24.8981 79.3369 25.6592H83.7734V25.5703C83.7507 24.8594 83.5479 24.2806 83.165 23.834C82.7822 23.3874 82.2809 23.1641 81.6611 23.1641ZM47.625 43.2109H43.1064L42.0811 46H41.1992L44.9658 36.0469H45.7656L49.5322 46H48.6572L47.625 43.2109ZM43.3662 42.4932H47.3584L45.3623 37.0723L43.3662 42.4932ZM56.7578 42.377C56.7578 43.5299 56.5026 44.446 55.9922 45.125C55.4818 45.7995 54.7982 46.1367 53.9414 46.1367C52.9297 46.1367 52.1549 45.7812 51.6172 45.0703V48.8438H50.8037V38.6035H51.5625L51.6035 39.6494C52.1367 38.861 52.9092 38.4668 53.9209 38.4668C54.805 38.4668 55.4977 38.8018 55.999 39.4717C56.5049 40.1416 56.7578 41.0713 56.7578 42.2607V42.377ZM55.9375 42.2334C55.9375 41.29 55.7438 40.5449 55.3564 39.998C54.9691 39.4512 54.429 39.1777 53.7363 39.1777C53.235 39.1777 52.8044 39.2985 52.4443 39.54C52.0843 39.7816 51.8086 40.1325 51.6172 40.5928V44.1406C51.8132 44.5645 52.0934 44.888 52.458 45.1113C52.8226 45.3346 53.2533 45.4463 53.75 45.4463C54.4382 45.4463 54.9736 45.1729 55.3564 44.626C55.7438 44.0745 55.9375 43.277 55.9375 42.2334ZM63.2451 46C63.1631 45.7676 63.1107 45.4235 63.0879 44.9678C62.8008 45.3415 62.4339 45.6309 61.9873 45.8359C61.5452 46.0365 61.0758 46.1367 60.5791 46.1367C59.8682 46.1367 59.2917 45.9385 58.8496 45.542C58.4121 45.1455 58.1934 44.6442 58.1934 44.0381C58.1934 43.318 58.4919 42.7484 59.0889 42.3291C59.6904 41.9098 60.5267 41.7002 61.5977 41.7002H63.0811V40.8594C63.0811 40.3307 62.917 39.916 62.5889 39.6152C62.2653 39.3099 61.7913 39.1572 61.167 39.1572C60.5973 39.1572 60.1257 39.3031 59.752 39.5947C59.3783 39.8864 59.1914 40.2373 59.1914 40.6475L58.3711 40.6406C58.3711 40.0527 58.6445 39.5446 59.1914 39.1162C59.7383 38.6833 60.4105 38.4668 61.208 38.4668C62.0329 38.4668 62.6823 38.6742 63.1562 39.0889C63.6348 39.499 63.8809 40.0732 63.8945 40.8115V44.3115C63.8945 45.027 63.9697 45.5625 64.1201 45.918V46H63.2451ZM60.6748 45.4121C61.2217 45.4121 61.7093 45.2799 62.1377 45.0156C62.5706 44.7513 62.8851 44.3981 63.0811 43.9561V42.3291H61.6182C60.8024 42.3382 60.1644 42.4886 59.7041 42.7803C59.2438 43.0674 59.0137 43.4639 59.0137 43.9697C59.0137 44.3844 59.1663 44.7285 59.4717 45.002C59.7816 45.2754 60.1826 45.4121 60.6748 45.4121ZM69.5 39.3008C69.3268 39.2689 69.1423 39.2529 68.9463 39.2529C68.4359 39.2529 68.0029 39.3965 67.6475 39.6836C67.2965 39.9661 67.0459 40.3786 66.8955 40.9209V46H66.082V38.6035H66.8818L66.8955 39.7793C67.3285 38.9043 68.0234 38.4668 68.9805 38.4668C69.2083 38.4668 69.3883 38.4964 69.5205 38.5557L69.5 39.3008ZM72.4121 36.71V38.6035H73.9434V39.2734H72.4121V44.2021C72.4121 44.6123 72.485 44.9176 72.6309 45.1182C72.7812 45.3187 73.0296 45.4189 73.376 45.4189C73.5127 45.4189 73.7337 45.3962 74.0391 45.3506L74.0732 46.0205C73.859 46.098 73.5674 46.1367 73.1982 46.1367C72.6377 46.1367 72.2298 45.9749 71.9746 45.6514C71.7194 45.3232 71.5918 44.8424 71.5918 44.209V39.2734H70.2314V38.6035H71.5918V36.71H72.4121ZM76.3838 38.6035L76.4111 39.8066C76.6846 39.36 77.0264 39.0251 77.4365 38.8018C77.8467 38.5785 78.3024 38.4668 78.8037 38.4668C79.9704 38.4668 80.7109 38.9453 81.0254 39.9023C81.2897 39.4421 81.6429 39.0889 82.085 38.8428C82.527 38.5921 83.0146 38.4668 83.5479 38.4668C85.1338 38.4668 85.9427 39.3327 85.9746 41.0645V46H85.1543V41.126C85.1497 40.4652 85.0062 39.9753 84.7236 39.6562C84.4456 39.3372 83.9899 39.1777 83.3564 39.1777C82.7686 39.1868 82.2718 39.3783 81.8662 39.752C81.4606 40.1211 81.235 40.5723 81.1895 41.1055V46H80.3691V41.0645C80.3646 40.431 80.2142 39.9593 79.918 39.6494C79.6263 39.335 79.1751 39.1777 78.5645 39.1777C78.0495 39.1777 77.6074 39.3258 77.2383 39.6221C76.8691 39.9137 76.5957 40.349 76.418 40.9277V46H75.5977V38.6035H76.3838ZM90.917 46.1367C90.2881 46.1367 89.7184 45.9818 89.208 45.6719C88.7021 45.362 88.3079 44.9313 88.0254 44.3799C87.7428 43.8239 87.6016 43.2018 87.6016 42.5137V42.2197C87.6016 41.5088 87.7383 40.8685 88.0117 40.2988C88.2897 39.7292 88.6748 39.2826 89.167 38.959C89.6592 38.6309 90.1924 38.4668 90.7666 38.4668C91.6644 38.4668 92.3753 38.7744 92.8994 39.3896C93.4281 40.0003 93.6924 40.8366 93.6924 41.8984V42.3564H88.415V42.5137C88.415 43.3522 88.6543 44.0518 89.1328 44.6123C89.6159 45.1683 90.222 45.4463 90.9512 45.4463C91.3887 45.4463 91.7738 45.3665 92.1064 45.207C92.4437 45.0475 92.749 44.7923 93.0225 44.4414L93.5352 44.8311C92.9336 45.7015 92.0609 46.1367 90.917 46.1367ZM90.7666 39.1641C90.1514 39.1641 89.6318 39.3896 89.208 39.8408C88.7887 40.292 88.5335 40.8981 88.4424 41.6592H92.8789V41.5703C92.8561 40.8594 92.6533 40.2806 92.2705 39.834C91.8877 39.3874 91.3864 39.1641 90.7666 39.1641ZM96.0645 38.6035L96.0918 39.8682C96.3698 39.4124 96.7161 39.0661 97.1309 38.8291C97.5456 38.5876 98.0036 38.4668 98.5049 38.4668C99.2979 38.4668 99.888 38.6901 100.275 39.1367C100.663 39.5833 100.859 40.2533 100.863 41.1465V46H100.05V41.1396C100.045 40.4788 99.904 39.9867 99.626 39.6631C99.3525 39.3395 98.9128 39.1777 98.3066 39.1777C97.8008 39.1777 97.3519 39.3372 96.96 39.6562C96.5726 39.9707 96.2855 40.3968 96.0986 40.9346V46H95.2852V38.6035H96.0645ZM104.254 36.71V38.6035H105.785V39.2734H104.254V44.2021C104.254 44.6123 104.327 44.9176 104.473 45.1182C104.623 45.3187 104.871 45.4189 105.218 45.4189C105.354 45.4189 105.576 45.3962 105.881 45.3506L105.915 46.0205C105.701 46.098 105.409 46.1367 105.04 46.1367C104.479 46.1367 104.072 45.9749 103.816 45.6514C103.561 45.3232 103.434 44.8424 103.434 44.209V39.2734H102.073V38.6035H103.434V36.71H104.254ZM111.91 44.1201C111.91 43.7145 111.746 43.3887 111.418 43.1426C111.094 42.8965 110.604 42.7051 109.948 42.5684C109.292 42.4271 108.782 42.2676 108.417 42.0898C108.057 41.9076 107.788 41.6865 107.61 41.4268C107.437 41.167 107.351 40.8525 107.351 40.4834C107.351 39.9001 107.594 39.4193 108.082 39.041C108.57 38.6582 109.194 38.4668 109.955 38.4668C110.78 38.4668 111.441 38.6719 111.938 39.082C112.439 39.4876 112.689 40.0186 112.689 40.6748H111.869C111.869 40.2419 111.687 39.8818 111.322 39.5947C110.962 39.3076 110.507 39.1641 109.955 39.1641C109.417 39.1641 108.984 39.2848 108.656 39.5264C108.333 39.7633 108.171 40.0732 108.171 40.4561C108.171 40.8252 108.305 41.1123 108.574 41.3174C108.848 41.5179 109.342 41.7025 110.058 41.8711C110.778 42.0397 111.315 42.2197 111.671 42.4111C112.031 42.6025 112.298 42.8327 112.471 43.1016C112.644 43.3704 112.73 43.6963 112.73 44.0791C112.73 44.7035 112.478 45.2025 111.972 45.5762C111.47 45.9499 110.814 46.1367 110.003 46.1367C109.142 46.1367 108.442 45.9294 107.904 45.5146C107.371 45.0954 107.104 44.5667 107.104 43.9287H107.925C107.957 44.4072 108.157 44.7809 108.526 45.0498C108.9 45.3141 109.392 45.4463 110.003 45.4463C110.573 45.4463 111.033 45.321 111.384 45.0703C111.735 44.8197 111.91 44.5029 111.91 44.1201ZM124.085 46H117.851V45.3711L121.262 41.502C121.827 40.8503 122.219 40.3125 122.438 39.8887C122.656 39.4648 122.766 39.0524 122.766 38.6514C122.766 38.0225 122.581 37.5257 122.212 37.1611C121.843 36.792 121.335 36.6074 120.688 36.6074C120.018 36.6074 119.475 36.8216 119.061 37.25C118.65 37.6784 118.445 38.2344 118.445 38.918H117.632C117.632 38.3574 117.757 37.847 118.008 37.3867C118.263 36.9264 118.623 36.5664 119.088 36.3066C119.557 36.0423 120.09 35.9102 120.688 35.9102C121.599 35.9102 122.31 36.1494 122.82 36.6279C123.335 37.1064 123.593 37.7581 123.593 38.583C123.593 39.0479 123.447 39.556 123.155 40.1074C122.868 40.6589 122.36 41.347 121.631 42.1719L118.855 45.3096H124.085V46ZM130.641 42.7939H132.192V43.4844H130.641V46H129.82V43.4844H125.138V43.0195L129.745 36.0469H130.641V42.7939ZM126.143 42.7939H129.82V37.1064L129.458 37.7354L126.143 42.7939Z" fill="black"/>
<path fill-rule="evenodd" clip-rule="evenodd" d="M14.0218 32.9608L14.0013 32.9174L13.9697 32.8854L13.9419 32.8646L13.9065 32.8439L13.8694 32.8382L13.8266 32.8326L13.7857 32.8439L13.7374 32.859L13.6854 32.8854L13.6315 32.9174L13.5739 32.9608L13.5163 33.0136L13.4159 33.1268L13.3211 33.2343L13.2375 33.3399L13.1632 33.4474L13.1 33.5492L13.0424 33.6511L12.9941 33.7529L12.9532 33.8528L12.8937 34.0471L12.8621 34.2432L12.8584 34.4413L12.8733 34.6393L12.8993 34.7619L12.9365 34.8581L12.9885 34.9278L13.048 34.9712L13.1167 34.992L13.1948 34.9863L13.2784 34.9542L13.3695 34.8958L13.5534 34.694L13.7058 34.496L13.8322 34.2979L13.9326 34.0942L14.005 33.8849L14.0534 33.6661L14.0794 33.4361V33.1852L14.0589 33.057L14.0218 32.9608Z" fill="#E68E38"/>
<path fill-rule="evenodd" clip-rule="evenodd" d="M19.019 34.132L18.9669 33.9019L18.8982 33.6926L18.7978 33.4908L18.6826 33.3041L18.5339 33.1211L18.3555 32.9457L18.2552 32.8703L18.1604 32.8269L18.1139 32.8156H18.0712L18.034 32.8213L17.9968 32.8326L17.9652 32.8533L17.9336 32.8797L17.9076 32.9174L17.8872 32.9665L17.8705 33.0193L17.8556 33.0834L17.8444 33.1532L17.8389 33.2343L17.8444 33.3889L17.8556 33.5323L17.8705 33.6662L17.8983 33.7944L17.9244 33.9132L17.9559 34.0245L17.9931 34.132L18.034 34.2338L18.1288 34.4092L18.2496 34.5695L18.3815 34.7147L18.5339 34.843L18.6343 34.9071L18.729 34.9486L18.8145 34.9599L18.887 34.9486L18.9502 34.9128L19.0041 34.8487L19.0413 34.7676L19.0617 34.6601L19.0506 34.3828L19.019 34.132Z" fill="#E68E38"/>
<path fill-rule="evenodd" clip-rule="evenodd" d="M17.9388 22.8714L17.9611 22.9147L17.9871 22.9468L18.0187 22.9732L18.0503 22.9902L18.0856 22.9996H18.1283L18.1766 22.9939L18.2231 22.9789L18.2714 22.9581L18.329 22.9204L18.381 22.8827L18.4442 22.8299L18.5502 22.7167L18.6449 22.6092L18.7286 22.5036L18.8085 22.4017L18.8772 22.2999L18.9348 22.1981L18.9813 22.0962L19.024 21.9944L19.0872 21.802L19.1188 21.604L19.13 21.406L19.1188 21.2098L19.0984 21.091L19.0612 20.9948L19.0092 20.9213L18.9497 20.8779L18.8772 20.8572L18.7973 20.8609L18.7137 20.8892L18.6245 20.9477L18.4349 21.1457L18.277 21.3418L18.1506 21.5361L18.0447 21.7379L17.9703 21.9416L17.9183 22.1603L17.8923 22.3961L17.8867 22.6469L17.9016 22.7752L17.9388 22.8714Z" fill="#E68E38"/>
<path fill-rule="evenodd" clip-rule="evenodd" d="M14.1017 22.2471L14.0849 22.1132L14.0645 21.9849L14.0385 21.8661L14.0106 21.7492L13.9734 21.6474L13.9326 21.5455L13.8378 21.3645L13.7263 21.1985L13.5943 21.0533L13.4475 20.925L13.3416 20.8571L13.2524 20.8194L13.1632 20.8024L13.0888 20.8138L13.0257 20.8515L12.9792 20.9156L12.9365 20.9948L12.916 21.1023L12.9253 21.3795L12.9532 21.6323L12.9996 21.8605L13.0684 22.0755L13.1632 22.2735L13.2784 22.4659L13.4215 22.6469L13.5943 22.8242L13.6947 22.8977L13.7895 22.9411L13.8378 22.9581H13.8805H13.9158L13.953 22.9411L13.9846 22.926L14.0162 22.894L14.0422 22.8619L14.0645 22.8129L14.0794 22.7601L14.0961 22.6959L14.1054 22.6262L14.111 22.5451L14.1054 22.3904L14.1017 22.2471Z" fill="#E68E38"/>
<path fill-rule="evenodd" clip-rule="evenodd" d="M22.8903 30.625L22.8326 30.5345L22.6318 30.3478L22.4365 30.1875L22.2468 30.0593L22.046 29.9575L21.8414 29.8821L21.6256 29.8349L21.3987 29.8085H21.1495L21.0231 29.8293L20.9282 29.8613L20.8873 29.8877L20.8557 29.9141L20.8334 29.9462L20.8129 29.9782L20.8018 30.0159V30.0593L20.8073 30.1008L20.8241 30.1498L20.8501 30.2026L20.8817 30.2573L20.9245 30.3158L20.9766 30.3742L21.0882 30.4817L21.1923 30.5722L21.2983 30.6571L21.4025 30.7325L21.5029 30.8023L21.6033 30.8607L21.7038 30.9079L21.8042 30.9513L21.9939 31.0097L22.1892 31.0418L22.3844 31.0531L22.5797 31.038L22.695 31.0097L22.7899 30.972L22.8587 30.9192L22.9052 30.8607L22.9275 30.791L22.9219 30.7118L22.8903 30.625Z" fill="#E68E38"/>
<path fill-rule="evenodd" clip-rule="evenodd" d="M11.065 29.9255L11.0427 29.8935L11.0111 29.8614L10.9795 29.835L10.933 29.8123L10.8809 29.7973L10.8177 29.7803L10.7489 29.7708L10.6689 29.7652L10.5164 29.7708L10.3732 29.7803L10.243 29.7916L10.1166 29.8123L9.99939 29.8406L9.88967 29.8727L9.78366 29.9105L9.68323 29.9463L9.50469 30.0425L9.34661 30.1614L9.20341 30.2935L9.07694 30.4444L9.00813 30.5519L8.97093 30.6482L8.95605 30.7331L8.96721 30.8085L9.00255 30.8727L9.06578 30.9255L9.14575 30.9632L9.25176 30.984L9.52515 30.9727L9.7725 30.9463L9.99939 30.8934L10.2114 30.8236L10.4048 30.7331L10.5908 30.6104L10.7749 30.4651L10.9479 30.2897L11.0223 30.1878L11.065 30.0916L11.0799 30.001L11.0762 29.9633L11.065 29.9255Z" fill="#E68E38"/>
<path fill-rule="evenodd" clip-rule="evenodd" d="M31.9846 27.5085L31.9697 27.0918L31.9511 26.6808L31.9139 26.2699L31.873 25.8626L31.8153 25.4573L31.7521 25.0557L31.6721 24.656L31.5791 24.2658L31.4899 23.8755L31.3932 23.4853L31.2816 23.1082L31.1607 22.7311L31.0286 22.3541L30.8929 21.977L30.7441 21.6132L30.586 21.2493L30.4223 20.8911L30.2401 20.5461L30.0541 20.1992L29.8681 19.8561L29.6729 19.5205L29.4683 19.1887L29.2581 18.8625L29.0368 18.5326L28.8118 18.2234L28.5793 17.9123L28.3357 17.6088L28.0883 17.309L27.8354 17.0243L27.5713 16.7415L27.3016 16.4588L27.0264 16.1873L26.7437 15.9233L26.4647 15.6669L26.169 15.4162L25.8696 15.1692L25.5627 14.9354L25.2559 14.7054L24.9397 14.4811L24.618 14.2661L24.2906 14.0588L23.954 13.8608L23.6155 13.6723L23.2733 13.4838L22.9256 13.3084L22.5722 13.1425L22.2188 12.9823L21.8469 12.8333L21.4749 12.6938L21.103 12.56L20.731 12.4374L20.3591 12.3243L19.9871 12.2187L19.6058 12.1226L19.2171 12.0377L18.821 11.9567L18.4249 11.8926L18.0306 11.8341L17.6308 11.7983L17.2309 11.7606L16.8199 11.7342L16.4089 11.7172H15.9979H15.5869L15.174 11.7342L14.7685 11.7606L14.3631 11.7983L13.9633 11.8398L13.5615 11.8982L13.1673 11.9623L12.773 12.0434L12.3787 12.1226L11.9937 12.2149L11.6088 12.3205L11.2368 12.4336L10.8649 12.5562L10.4929 12.69L10.1209 12.8296L9.76201 12.9785L9.40307 13.1387L9.04971 13.3046L8.70379 13.4856L8.36159 13.6742L8.02311 13.8627L7.69207 14.0607L7.36474 14.268L7.04858 14.4811L6.72684 14.7054L6.42183 14.9354L6.11497 15.1692L5.81555 15.4162L5.51984 15.6669L5.23529 15.9233L4.95632 16.191L4.68108 16.4588L4.41327 16.7415L4.14918 17.0243L3.89625 17.3128L3.6489 17.6126L3.40526 17.9161L3.17465 18.2272L2.94776 18.5326L2.72644 18.8625L2.51443 19.1887L2.30985 19.5205L2.11457 19.8523L1.9286 20.1954L1.74262 20.5423L1.56966 20.8892L1.406 21.2474L1.24791 21.6113L1.10099 21.9751L0.963368 22.3522L0.831323 22.7293L0.710437 23.1063L0.59885 23.4834L0.494703 23.8736L0.403573 24.2639L0.319883 24.6541L0.241772 25.0538L0.178539 25.4554L0.119026 25.8607L0.0799704 26.2623L0.0427749 26.6733L0.0167381 27.0843L0 27.501V27.9195L0.0111586 28.4474L0.0316163 28.9771L0.0743913 29.5013L0.132045 30.0141L0.206436 30.5269L0.295706 31.034L0.396134 31.5411L0.520739 32.0408L0.652784 32.5328L0.799707 33.0136L0.963368 33.4887L1.14935 33.96L1.33532 34.4238L1.5399 34.8781L1.75564 35.3287L1.98811 35.7661L2.05692 35.8943L2.13131 36.0168L2.41586 36.4655L2.71528 36.9105L3.02587 37.3479L3.35319 37.7815L3.68237 38.2076L4.03015 38.6355L4.38351 39.0578L4.75547 39.4745L5.12742 39.8911L5.49938 40.304L6.27863 41.1147L7.0802 41.9216L7.8985 42.7247L9.55371 44.3159L10.3776 45.1153L11.2052 45.9109L12.0161 46.7122L12.8121 47.5191L13.5876 48.3373L13.9595 48.7483L14.3315 49.1649L14.4375 49.2894L14.5435 49.4062L14.6495 49.5137L14.7592 49.6155L14.8653 49.706L14.9694 49.7852L15.0754 49.8606L15.1814 49.9247L15.2874 49.9831L15.3916 50.0322L15.4976 50.0736L15.6073 50.1057L15.8193 50.1491L16.0295 50.1604L16.2415 50.1377L16.4517 50.0906L16.6618 50.0095L16.8738 49.8983L17.0896 49.7588L17.2997 49.5929L17.5117 49.3949L17.7219 49.1706L18.1124 48.7106L18.5179 48.2581L18.9289 47.8075L19.3511 47.3588L20.2103 46.4784L21.0862 45.6074L21.9771 44.7514L22.8623 43.9068L23.7476 43.0679L24.6124 42.2459L25.0346 41.8387L25.4511 41.4333L25.8622 41.0261L26.2564 40.6264L26.647 40.2248L27.0189 39.8289L27.3909 39.4292L27.7443 39.039L28.0772 38.6431L28.397 38.2528L28.6983 37.8626L28.9773 37.4723L29.2414 37.0952L29.4832 36.7182L29.7045 36.3411L29.9053 35.9641L29.9593 35.8679L30.0113 35.7718L30.2438 35.3325L30.4633 34.8517L30.6641 34.3974L30.8501 33.9392L31.0361 33.4679L31.1997 32.9928L31.3467 32.5121L31.4787 32.0257L31.5996 31.5336L31.7 31.0302L31.7893 30.5287L31.8637 30.0159L31.9213 29.5031L31.9641 28.979L31.9846 28.4549L31.9957 27.927L31.9846 27.5085ZM3.78094 26.0512V25.9003L3.80326 25.7401L3.83487 25.5685L3.88695 25.2763L3.95018 24.9822L4.01899 24.6881L4.0971 24.394L4.18265 24.0999L4.2868 23.8114L4.39095 23.5173L4.50254 23.2176L4.62342 22.9234L4.74989 22.6256L4.88751 22.3315L5.02886 22.0317L5.3413 21.4378L5.6835 20.8402L5.76719 20.695L5.85274 20.5668L5.94759 20.4556L6.04802 20.3594L6.14659 20.2784L6.25259 20.2143L6.36418 20.1671L6.47205 20.1294L6.58364 20.1125H6.70452L6.81983 20.1294L6.94071 20.1671L7.06346 20.2199L7.18435 20.2953L7.30523 20.3858L7.42612 20.4933L12.2002 25.248L12.3155 25.3875L12.4048 25.527L12.4736 25.6703L12.5108 25.8211L12.5312 25.9701V26.1153L12.5052 26.2585L12.4587 26.3981L12.3899 26.5263L12.3006 26.6488L12.1946 26.7619L12.0681 26.8581L11.9249 26.9429L11.7669 27.0127L11.5995 27.0654L11.4135 27.0975L4.90425 27.1465L4.72943 27.1239L4.56577 27.0918L4.42443 27.0504L4.29796 26.99L4.18637 26.9259L4.08595 26.8524L4.00226 26.7657L3.93344 26.6695L3.86835 26.5696L3.82744 26.4508L3.79582 26.3283L3.78094 26.1944V26.0512ZM7.58792 35.2476L7.44658 35.3551L7.30895 35.4456L7.17691 35.521L7.05044 35.5738L6.92398 35.6059L6.80309 35.6209H6.6822L6.5669 35.6002L6.45531 35.5681L6.34372 35.5154L6.23958 35.4456L6.13357 35.3645L6.02756 35.2646L5.92899 35.1515L5.83414 35.0233L5.72813 34.8781L5.56633 34.633L5.40267 34.3823L5.25017 34.1202L5.10139 33.8582L4.96004 33.5848L4.82242 33.3077L4.69038 33.0249L4.56949 32.7364L4.4486 32.4367L4.33144 32.1369L4.1157 31.5129L3.92972 30.87L3.7549 30.2026L3.71399 30.0423L3.68237 29.8877V29.7426V29.6049V29.4673L3.71399 29.3448L3.75676 29.2317L3.81442 29.1298L3.88323 29.0394L3.96878 28.9583L4.06363 28.8848L4.17336 28.8263L4.29982 28.7773L4.43745 28.7452L4.58437 28.7245L4.74803 28.7132L11.4433 28.6868L11.6292 28.7019L11.7929 28.7339L11.9417 28.7943L12.0737 28.8678L12.189 28.9639L12.2839 29.0714L12.362 29.1883L12.4252 29.3222L12.468 29.4673L12.4903 29.6106V29.7709L12.4699 29.9273L12.4271 30.0914L12.3638 30.2516L12.2746 30.4119L12.1648 30.5683L7.58792 35.2476ZM15.1535 39.2822L15.1163 39.4481L15.0754 39.5933L15.0215 39.7215L14.9582 39.8384L14.8857 39.9345L14.8002 40.0193L14.7053 40.0891L14.6012 40.1475L14.484 40.1909L14.3631 40.2173L14.2311 40.2343H14.0934H13.9409L13.7829 40.2079L13.6192 40.1758L13.3291 40.1211L13.0389 40.057L12.7507 39.9835L12.4606 39.9024L12.1704 39.8176L11.8654 39.7102L11.5753 39.6083L11.2796 39.4915L10.9895 39.3689L10.6993 39.2388L10.1228 38.9504L9.53139 38.6355L8.94742 38.2886L8.80422 38.2038L8.67775 38.1114L8.56803 38.0153L8.47132 37.9191L8.39321 37.8135L8.33183 37.7061L8.28348 37.5986L8.25186 37.4874L8.23698 37.3686V37.2517L8.25744 37.1292L8.29464 37.0104L8.34671 36.8879L8.41552 36.7653L8.50665 36.6428L8.61638 36.5202L13.3198 31.6939L13.4555 31.577L13.5932 31.4846L13.7401 31.4205L13.8833 31.379L14.0302 31.362H14.179L14.3148 31.3884L14.4524 31.4431L14.5788 31.511L14.6997 31.5977L14.8113 31.7089L14.9062 31.8334L14.9899 31.9767L15.0587 32.1369L15.1052 32.3141L15.1368 32.5026L15.1684 39.1012L15.1535 39.2822ZM15.1703 23.5173L15.1331 23.6832L15.0754 23.8322L15.001 23.966L14.9062 24.0829L14.8002 24.1791L14.6849 24.2601L14.5528 24.3242L14.4096 24.3676L14.2627 24.3883H14.0972L13.9502 24.377L13.7866 24.3336L13.6285 24.2695L13.4704 24.1791L13.3179 24.0659L8.71495 19.396L8.60894 19.2584L8.51781 19.1189L8.449 18.9851L8.39692 18.8512L8.36717 18.7211L8.35043 18.5986V18.4817L8.36717 18.3629L8.40436 18.246L8.45644 18.1329L8.51967 18.0273L8.60336 17.9199L8.69821 17.8181L8.8098 17.7162L8.93626 17.6201L9.07761 17.5239L9.32124 17.358L9.56859 17.194L9.81966 17.0394L10.0782 16.8905L10.346 16.7453L10.6212 16.6133L10.9058 16.4795L11.1903 16.3513L11.4935 16.2287L11.7873 16.1156L12.4048 15.9026L13.0427 15.7046L13.701 15.5331L13.861 15.4897L14.0135 15.4633L14.1548 15.452H14.2924L14.4245 15.469L14.5398 15.501L14.6514 15.5444L14.7555 15.6028L14.8467 15.6726L14.9248 15.7574L14.9936 15.8536L15.0512 15.9667L15.0996 16.0949L15.1349 16.2325L15.1572 16.3833V16.5492L15.1721 23.3363L15.1703 23.5173ZM16.8868 16.7095L16.9147 16.5323L16.9501 16.372L16.9928 16.2231L17.0505 16.0949L17.1193 15.9818L17.1937 15.8856L17.2774 15.8008L17.3722 15.7367L17.4783 15.6782L17.5936 15.6405L17.7144 15.6141L17.8465 15.5972H18.0027L18.1496 15.6141L18.3077 15.6349L18.4714 15.6726L18.7615 15.731L19.0516 15.8008L19.3362 15.8743L19.6263 15.961L19.9164 16.0515L20.2066 16.1533L20.4967 16.2646L20.7868 16.3833L21.0751 16.5115L21.3503 16.6473L21.6404 16.7906L21.9362 16.9414L22.5164 17.2657L23.1004 17.6239L23.2436 17.7106L23.37 17.8011L23.4761 17.9029L23.5709 17.999L23.649 18.1046L23.7122 18.2121L23.7606 18.3252L23.7922 18.4421L23.8015 18.5552V18.6721L23.7792 18.7946L23.742 18.9115L23.6844 19.036L23.6118 19.1585L23.5207 19.2754L23.411 19.3979L18.635 24.1489L18.4974 24.2677L18.3542 24.3525L18.2073 24.4166L18.0604 24.46L17.9116 24.4713H17.7647L17.627 24.4392L17.4913 24.3902L17.3648 24.3148L17.2421 24.2243L17.1379 24.1131L17.0431 23.9849L16.9575 23.8397L16.8943 23.6794L16.8478 23.5041L16.8217 23.3156L16.8868 16.7095ZM23.6658 37.2253L23.649 37.3479L23.6137 37.461L23.5653 37.5722L23.4965 37.6797L23.4184 37.7853L23.318 37.8927L23.2064 37.9945L23.0799 38.0907L22.9386 38.1868L22.6949 38.3584L22.4476 38.5168L22.1947 38.6713L21.9362 38.8259L21.6683 38.9749L21.3931 39.1144L21.1141 39.2539L20.8296 39.3821L20.5395 39.5047L20.2438 39.6272L19.6319 39.8459L18.9996 40.0495L18.3412 40.238L18.1831 40.2795L18.0306 40.3116L17.8874 40.3229H17.7461L17.6196 40.3116L17.4968 40.2795L17.3871 40.238L17.2867 40.1834L17.1918 40.1136L17.1119 40.0288L17.0393 39.927L16.9817 39.8195L16.9333 39.6913L16.8961 39.5537L16.8757 39.4028L16.8645 39.2369L16.7753 32.4499L16.7864 32.2613L16.8236 32.0954L16.8757 31.9465L16.9501 31.8126L17.0393 31.6957L17.1435 31.5939L17.2662 31.5129L17.3983 31.4488L17.534 31.4073L17.6828 31.3847H17.8353L17.9934 31.4073L18.1515 31.445L18.3152 31.5091L18.4732 31.5939L18.6313 31.7052L23.2808 36.3072L23.3961 36.4429L23.4872 36.5824L23.5597 36.7144L23.6137 36.8483L23.649 36.9765L23.6658 37.099V37.2253ZM28.1051 29.8444L28.0939 29.999L28.0734 30.1592L28.0362 30.3251L27.9842 30.6192L27.9209 30.9115L27.8465 31.2056L27.7666 31.4997L27.6736 31.7844L27.5732 32.0785L27.469 32.3726L27.3574 32.6667L27.231 32.9608L27.1157 33.2605L26.9724 33.5528L26.8311 33.8525L26.5149 34.4464L26.1672 35.0384L26.0816 35.1835L25.9923 35.3117L25.8975 35.4249L25.8026 35.521L25.6966 35.6002L25.5925 35.6643L25.4809 35.7133L25.3712 35.7454H25.254H25.1387L25.0234 35.7246L24.9006 35.6869L24.7798 35.6341L24.6645 35.5587L24.5436 35.4682L24.4208 35.3551L19.6765 30.5721L19.5612 30.4326L19.4757 30.2874L19.4087 30.1441L19.3715 29.9952L19.3548 29.8444V29.7011L19.3864 29.5559L19.4347 29.4221L19.5017 29.2882L19.5928 29.1713L19.697 29.0582L19.8234 28.9621L19.9666 28.8772L20.1247 28.8131L20.2977 28.766L20.4837 28.7339H26.9929L27.1677 28.7547L27.3314 28.7924L27.4727 28.8339L27.5992 28.8942L27.7108 28.9583L27.8112 29.0318L27.8949 29.1185L27.9637 29.2147L28.0158 29.3203L28.0586 29.439L28.0846 29.5616L28.1013 29.6954L28.1051 29.8444ZM28.2315 26.2265L28.2148 26.3603L28.1887 26.4772L28.1423 26.5904L28.0883 26.6978L28.0158 26.7883L27.9302 26.8675L27.8354 26.9372L27.7257 26.9957L27.5992 27.0447L27.4616 27.0824L27.3147 27.1032H27.151L20.4558 27.1145L20.2698 27.0975L20.1061 27.0598L19.9592 27.0013L19.8272 26.9259L19.7174 26.8354L19.617 26.728L19.537 26.6054L19.4794 26.4716L19.4366 26.3283L19.4106 26.1775V26.0229L19.4329 25.8626L19.4738 25.7024L19.537 25.5421L19.6263 25.3762L19.7379 25.2216L24.3409 20.5668L24.4822 20.4612L24.6198 20.3689L24.7519 20.301L24.8839 20.2463L25.0104 20.2143L25.1313 20.1992H25.2559L25.373 20.2199L25.4828 20.252L25.5944 20.3048L25.6985 20.3745L25.8045 20.4556L25.9049 20.5574L26.0054 20.6686L26.1002 20.7968L26.1951 20.942L26.3587 21.1871L26.5224 21.4435L26.6749 21.6999L26.8218 21.9676L26.965 22.2391L27.0971 22.5181L27.2272 22.8009L27.3556 23.0893L27.4765 23.3891L27.5862 23.6889L27.6978 23.9981L27.7982 24.3129L27.9842 24.9596L28.1516 25.6288L28.1943 25.7891L28.2204 25.9437L28.2315 26.087V26.2265Z" fill="#E68E38"/>
<path fill-rule="evenodd" clip-rule="evenodd" d="M8.98251 25.2219L9.04016 25.3144L9.24102 25.5011L9.4363 25.6559L9.63157 25.7842L9.83243 25.886L10.037 25.9558L10.2527 26.003L10.4852 26.0257H10.7326L10.8535 26.003L10.9539 25.9709L10.9911 25.9445L11.0227 25.9181L11.0487 25.886L11.0655 25.854L11.0766 25.8162V25.7728L11.0711 25.7313L11.0543 25.6823L11.0283 25.6294L10.9967 25.5766L10.9539 25.5162L10.9018 25.4577L10.7902 25.3559L10.6861 25.2596L10.5745 25.1747L10.4741 25.0993L10.3699 25.0351L10.2695 24.9766L10.1691 24.9295L10.0686 24.8861L9.87335 24.8276L9.68365 24.7955L9.48837 24.7898L9.29309 24.8049L9.17221 24.8332L9.07736 24.8691L9.00855 24.9238L8.96763 24.988L8.94531 25.0578L8.95089 25.137L8.98251 25.2219Z" fill="#E68E38"/>
<path fill-rule="evenodd" clip-rule="evenodd" d="M22.9046 24.9389L22.8414 24.8861L22.7633 24.8484L22.6573 24.8276L22.3839 24.837L22.1365 24.8635L21.9096 24.9125L21.6976 24.9823L21.5023 25.0785L21.3126 25.1955L21.1341 25.3464L20.9593 25.5219L20.8868 25.6238L20.844 25.72L20.8291 25.769V25.8105V25.8483L20.844 25.886L20.8607 25.9181L20.8923 25.9502L20.924 25.9766L20.9704 25.9992L21.0225 26.0143L21.0876 26.0294L21.1546 26.0407L21.2345 26.0464L21.387 26.0407L21.5302 26.0351L21.6604 26.02L21.7887 25.9992L21.9041 25.9709L22.0194 25.9388L22.1198 25.9068L22.2202 25.8653L22.3988 25.769L22.5624 25.6502L22.7056 25.5162L22.8321 25.3615L22.9009 25.2597L22.9362 25.1634L22.953 25.0785L22.9418 25.0031L22.9046 24.9389Z" fill="#E68E38"/>
<path fill-rule="evenodd" clip-rule="evenodd" d="M5.50293 0.158432L6.01437 0.21122L6.51093 0.286632L6.99448 0.371471L7.465 0.473277L7.92251 0.595822L8.367 0.729678L8.79289 0.884272L9.20948 1.05583L9.61492 1.23871L10.0055 1.44044L10.3793 1.65913L10.7438 1.89479L11.0916 2.14554L11.4282 2.41325L11.75 2.69605L12.0568 2.99581L12.3507 3.31065L12.6352 3.64247L12.8993 3.98936L13.1578 4.35322L13.3996 4.73783L13.6265 5.13374L13.8385 5.54473L14.0431 5.9727L14.229 6.4214L14.402 6.88141L14.5657 7.36216L14.7126 7.85423L14.8446 8.36137L14.9655 8.89114L15.0715 9.43034L15.1664 9.99216L14.6177 9.92806L14.0858 9.84133L13.5688 9.74518L13.0685 9.63395L12.5776 9.51141L12.1089 9.36624L11.6551 9.20599L11.2181 9.03442L10.7959 8.84212L10.3904 8.6404L9.99989 8.41605L9.62608 8.18038L9.26714 7.92964L8.92494 7.66193L8.59761 7.37913L8.28703 7.07937L7.99132 6.76452L7.71236 6.43271L7.44827 6.08959L7.20091 5.72761L6.96844 5.34678L6.75829 4.95652L6.55743 4.54553L6.37889 4.12322L6.20965 3.68583L6.06273 3.22582L5.9251 2.75638L5.80979 2.26997L5.70937 1.76094L5.62382 1.24248L5.55686 0.70894L5.50293 0.158432Z" fill="#6C9E28"/>
<path fill-rule="evenodd" clip-rule="evenodd" d="M23.5484 3.15607L23.5168 3.51427L23.4703 3.86683L23.4126 4.20995L23.3438 4.53988L23.2638 4.86226L23.1746 5.17711L23.0741 5.48064L22.9644 5.77475L22.8379 6.05755L22.7003 6.33657L22.5571 6.60428L22.399 6.86068L22.2316 7.10577L22.0457 7.34709L21.856 7.57144L21.657 7.79579L21.4394 8.00318L21.2125 8.20113L20.9763 8.39343L20.7289 8.57631L20.4704 8.75164L20.2008 8.91189L19.9218 9.06649L19.6261 9.21166L19.3267 9.35117L19.0105 9.47937L18.6832 9.5906L18.3447 9.70372L17.9969 9.79987L17.6398 9.89036L17.2642 9.96955L16.8848 10.0393L16.9275 9.6547L16.974 9.27576L17.0373 8.91189L17.1117 8.55368L17.1972 8.21245L17.2902 7.88063L17.3962 7.56013L17.5078 7.25094L17.6343 6.95118L17.7756 6.66273L17.9244 6.3837L18.0825 6.12165L18.2498 5.86525L18.4302 5.62016L18.6255 5.39015L18.8245 5.17145L19.0365 4.95653L19.2634 4.76046L19.4996 4.57193L19.7433 4.3966L20.0018 4.23069L20.2696 4.07609L20.5485 3.93658L20.8387 3.80273L21.1399 3.68018L21.4505 3.57272L21.7723 3.47657L22.1052 3.39173L22.4474 3.31632L22.8063 3.25222L23.169 3.19943L23.5484 3.15607Z" fill="#6C9E28"/>
<path fill-rule="evenodd" clip-rule="evenodd" d="M23.5484 3.15607L23.5168 3.51427L23.4703 3.86683L23.4126 4.20995L23.3438 4.53988L23.2638 4.86226L23.1746 5.17711L23.0741 5.48064L22.9644 5.77475L22.8379 6.05755L22.7003 6.33657L22.5571 6.60428L22.399 6.86068L22.2316 7.10577L22.0457 7.34709L21.856 7.57144L21.657 7.79579L21.4394 8.00318L21.2125 8.20113L20.9763 8.39343L20.7289 8.57631L20.4704 8.75164L20.2008 8.91189L19.9218 9.06649L19.6261 9.21166L19.3267 9.35117L19.0105 9.47937L18.6832 9.5906L18.3447 9.70372L17.9969 9.79987L17.6398 9.89036L17.2642 9.96955L16.8848 10.0393L16.9275 9.6547L16.974 9.27576L17.0373 8.91189L17.1117 8.55368L17.1972 8.21245L17.2902 7.88063L17.3962 7.56013L17.5078 7.25094L17.6343 6.95118L17.7756 6.66273L17.9244 6.3837L18.0825 6.12165L18.2498 5.86525L18.4302 5.62016L18.6255 5.39015L18.8245 5.17145L19.0365 4.95653L19.2634 4.76046L19.4996 4.57193L19.7433 4.3966L20.0018 4.23069L20.2696 4.07609L20.5485 3.93658L20.8387 3.80273L21.1399 3.68018L21.4505 3.57272L21.7723 3.47657L22.1052 3.39173L22.4474 3.31632L22.8063 3.25222L23.169 3.19943L23.5484 3.15607Z" stroke="white" stroke-width="0.03" stroke-miterlimit="10"/>
</svg>
