<?xml version="1.0" encoding="utf-8"?>
<!-- Generator: Adobe Illustrator 25.4.1, SVG Export Plug-In . SVG Version: 6.00 Build 0)  -->
<svg version="1.1" id="Layer_1" xmlns="http://www.w3.org/2000/svg" xmlns:xlink="http://www.w3.org/1999/xlink" x="0px" y="0px"
	 viewBox="0 0 47 47" style="enable-background:new 0 0 47 47;" xml:space="preserve">
<style type="text/css">
	.st0{fill:none;stroke:#E68E38;}
</style>
<circle class="st0" cx="23.5" cy="23.5" r="23"/>
<path class="st0" d="M20.9,34.5 M35.3,15.7L19.8,31.1l-0.4-0.4l-6.9-6.9c-0.3-0.3-0.7-0.4-1.1-0.4c-0.4,0-0.8,0.2-1.1,0.5
	C10,24.2,9.8,24.6,9.8,25c0,0.4,0.2,0.8,0.4,1.1l8.4,8.4v0c0.3,0.3,0.7,0.5,1.1,0.5c0.4,0,0.8-0.2,1.1-0.5l0,0 M37.6,15.7
	c-0.3-0.3-0.7-0.5-1.1-0.5c-0.4,0-0.8,0.2-1.1,0.5 M37.7,17.7c0.3-0.3,0.5-0.6,0.5-1.1c0-0.4-0.3-0.7-0.6-1 M20.9,34.5l16.8-16.8
	L20.9,34.5z"/>
</svg>
