<svg width="251" height="204" viewBox="0 0 251 204" fill="none" xmlns="http://www.w3.org/2000/svg">
<path d="M199.181 204C178.129 204 162.205 195.365 151.41 178.095C142.233 163.524 137.645 145.714 137.645 124.667C137.645 97.6826 144.392 73.3968 157.887 51.8095C171.922 30.2222 192.973 12.9524 221.042 0L228.329 14.5714C211.596 21.5873 197.022 32.6508 184.606 47.7619C172.731 62.873 166.794 78.254 166.794 93.9048C166.794 100.381 167.603 106.048 169.223 110.905C177.859 103.889 187.845 100.381 199.181 100.381C213.755 100.381 225.9 105.238 235.616 114.952C245.872 124.127 251 136.54 251 152.19C251 166.762 245.872 179.175 235.616 189.429C225.9 199.143 213.755 204 199.181 204ZM61.5355 204C40.4839 204 24.5602 195.365 13.7645 178.095C4.58817 163.524 0 145.714 0 124.667C0 97.6826 6.74731 73.3968 20.2419 51.8095C34.2763 30.2222 55.328 12.9524 83.3968 0L90.6839 14.5714C73.9505 21.5873 59.3764 32.6508 46.9613 47.7619C35.086 62.873 29.1484 78.254 29.1484 93.9048C29.1484 100.381 29.9581 106.048 31.5774 110.905C40.214 103.889 50.2 100.381 61.5355 100.381C76.1097 100.381 88.2548 105.238 97.971 114.952C108.227 124.127 113.355 136.54 113.355 152.19C113.355 166.762 108.227 179.175 97.971 189.429C88.2548 199.143 76.1097 204 61.5355 204Z" fill="#FBF2EA"/>
</svg>
