<svg width="70" height="79" viewBox="0 0 70 79" fill="none" xmlns="http://www.w3.org/2000/svg">
<path d="M41.9893 66.5928H24.6943V79H11.1592V66.5928H0.148438V55.6895H11.1592V49.9424H0.148438V39.0391H11.1592V0.796875H41.0762C49.7057 0.796875 56.5986 3.05273 61.7549 7.56445C66.9111 12.0404 69.4893 18.0023 69.4893 25.4502C69.4893 33.0413 67.0365 39.0033 62.1309 43.3359C57.2253 47.6328 50.404 49.835 41.667 49.9424H24.6943V55.6895H41.9893V66.5928ZM24.6943 39.0391H40.8613C45.7311 39.0391 49.4551 37.9111 52.0332 35.6553C54.6113 33.3994 55.9004 30.0335 55.9004 25.5576C55.9004 21.5472 54.6292 18.2708 52.0869 15.7285C49.5804 13.1862 46.1071 11.8613 41.667 11.7539H24.6943V39.0391Z" fill="#E68E38" fill-opacity="0.4"/>
</svg>
