<svg width="566" height="613" viewBox="0 0 566 613" fill="none" xmlns="http://www.w3.org/2000/svg">
<path d="M472.252 19.6818C513.236 49.1314 527.17 119.483 538.646 178.383C550.941 237.282 561.597 283.911 564.875 332.993C568.154 382.894 564.875 433.613 546.843 481.878C527.99 529.325 495.203 574.317 450.941 595.586C405.859 616.037 350.94 613.583 296.022 611.947C241.924 610.311 187.825 609.493 147.661 586.588C106.677 563.682 79.6279 517.872 59.1361 471.243C39.4639 424.615 27.1687 377.986 14.8736 323.995C2.57848 270.822 -9.71662 209.468 11.5949 166.112C33.7261 121.938 88.6443 95.7601 141.104 72.0367C193.563 49.1314 244.383 29.4983 304.219 14.7735C363.235 -0.769395 431.268 -10.5859 472.252 19.6818Z" fill="#E68E38" fill-opacity="0.07"/>
</svg>
