<svg width="31" height="36" viewBox="0 0 31 36" fill="none" xmlns="http://www.w3.org/2000/svg">
<g clip-path="url(#clip0_398:134)">
<path d="M30.8025 14.5633C30.5068 14.5782 30.2105 14.5782 29.9147 14.5633C28.3188 14.5633 26.748 14.1657 25.3443 13.4063C23.9406 12.647 22.7482 11.5499 21.8748 10.2142V25.0172C21.8748 27.1873 21.2313 29.3088 20.0256 31.1132C18.8199 32.9176 17.1063 34.324 15.1013 35.1545C13.0963 35.985 10.8901 36.2023 8.76161 35.7789C6.63314 35.3555 4.67806 34.3105 3.14351 32.7759C1.60897 31.2414 0.563903 29.2863 0.140524 27.1578C-0.282855 25.0293 -0.0655484 22.8231 0.764939 20.8181C1.59543 18.8132 3.0018 17.0995 4.80623 15.8938C6.61066 14.6881 8.73209 14.0446 10.9023 14.0446C11.1317 14.0446 11.3512 14.0446 11.5706 14.0446V19.4311C11.3497 19.3926 11.1264 19.3692 10.9023 19.3613C10.1495 19.3295 9.39805 19.4502 8.69318 19.7164C7.98831 19.9825 7.34459 20.3885 6.80069 20.9099C6.25679 21.4312 5.82397 22.0573 5.5283 22.7503C5.23263 23.4433 5.08026 24.1889 5.08026 24.9423C5.08026 25.6958 5.23263 26.4414 5.5283 27.1344C5.82397 27.8274 6.25679 28.4535 6.80069 28.9748C7.34459 29.4962 7.98831 29.9022 8.69318 30.1683C9.39805 30.4345 10.1495 30.5552 10.9023 30.5234C12.398 30.5479 13.8438 29.985 14.9292 28.9555C16.0146 27.9261 16.6531 26.5121 16.7077 25.0172V-0.119995H21.8648C22.0997 2.12043 23.1145 4.20705 24.7318 5.77515C26.3491 7.34324 28.4661 8.29306 30.7127 8.45856V14.4436" fill="black"/>
</g>
<defs>
<clipPath id="clip0_398:134">
<rect width="30.803" height="36" fill="white"/>
</clipPath>
</defs>
</svg>
